<svg width="124" height="124" viewBox="0 0 124 124" fill="none" xmlns="http://www.w3.org/2000/svg">
<g clip-path="url(#clip0_4084_24146)">
<rect width="124" height="124" rx="62" fill="#C4D0FB" fill-opacity="0.2"/>
<circle cx="62" cy="62" r="62" fill="#FFD6DD"/>
<path fill-rule="evenodd" clip-rule="evenodd" d="M62.0003 30.7178C48.9262 30.7178 38.3275 41.3164 38.3275 54.3905V56.997C35.9284 57.3995 34.1003 59.4861 34.1003 61.9996V67.9178C34.1003 70.4762 35.9942 72.5923 38.4565 72.9403C39.3304 81.3128 44.5681 88.3873 51.8548 91.8488V99.6863C33.9285 100.778 19.7275 115.662 19.7275 133.863H104.273C104.273 115.662 90.072 100.778 72.1457 99.6863V91.8488C79.4324 88.3872 84.6702 81.3128 85.544 72.9403C88.0063 72.5923 89.9003 70.4762 89.9003 67.9178V61.9996C89.9003 59.4861 88.0722 57.3995 85.673 56.997V54.3905C85.673 41.3164 75.0744 30.7178 62.0003 30.7178Z" fill="#D0C6AC"/>
<mask id="mask0_4084_24146" style="mask-type:luminance" maskUnits="userSpaceOnUse" x="19" y="30" width="86" height="104">
<path fill-rule="evenodd" clip-rule="evenodd" d="M62.0003 30.7178C48.9262 30.7178 38.3275 41.3164 38.3275 54.3905V56.997C35.9284 57.3995 34.1003 59.4861 34.1003 61.9996V67.9178C34.1003 70.4762 35.9942 72.5923 38.4565 72.9403C39.3304 81.3128 44.5681 88.3873 51.8548 91.8488V99.6863C33.9285 100.778 19.7275 115.662 19.7275 133.863H104.273C104.273 115.662 90.072 100.778 72.1457 99.6863V91.8488C79.4324 88.3872 84.6702 81.3128 85.544 72.9403C88.0063 72.5923 89.9003 70.4762 89.9003 67.9178V61.9996C89.9003 59.4861 88.0722 57.3995 85.673 56.997V54.3905C85.673 41.3164 75.0744 30.7178 62.0003 30.7178Z" fill="white"/>
</mask>
<g mask="url(#mask0_4084_24146)">
<rect x="6.2002" y="30.7178" width="111.6" height="103.145" fill="#D08B5B"/>
<path fill-rule="evenodd" clip-rule="evenodd" d="M38.3271 70.4541V73.8363C38.3271 86.9104 48.9258 97.509 61.9999 97.509C75.074 97.509 85.6726 86.9104 85.6726 73.8363V70.4541C85.6726 83.5282 75.074 94.1269 61.9999 94.1269C48.9258 94.1269 38.3271 83.5282 38.3271 70.4541Z" fill="black" fill-opacity="0.1"/>
</g>
<path fill-rule="evenodd" clip-rule="evenodd" d="M62.0003 111.48C68.3039 111.48 73.4139 106.749 73.4139 100.912C73.4139 100.537 73.3928 100.166 73.3516 99.8008C90.7031 101.46 104.273 116.077 104.273 133.863H19.7275C19.7275 116.077 33.2975 101.46 50.649 99.8008C50.6078 100.166 50.5866 100.537 50.5866 100.912C50.5866 106.749 55.6967 111.48 62.0003 111.48Z" fill="#909292"/>
<mask id="mask1_4084_24146" style="mask-type:luminance" maskUnits="userSpaceOnUse" x="19" y="99" width="86" height="35">
<path fill-rule="evenodd" clip-rule="evenodd" d="M62.0003 111.48C68.3039 111.48 73.4139 106.749 73.4139 100.912C73.4139 100.537 73.3928 100.166 73.3516 99.8008C90.7031 101.46 104.273 116.077 104.273 133.863H19.7275C19.7275 116.077 33.2975 101.46 50.649 99.8008C50.6078 100.166 50.5866 100.537 50.5866 100.912C50.5866 106.749 55.6967 111.48 62.0003 111.48Z" fill="white"/>
</mask>
<g mask="url(#mask1_4084_24146)">
<rect x="6.2002" y="87.3633" width="111.6" height="46.5" fill="#909292"/>
</g>
<path fill-rule="evenodd" clip-rule="evenodd" d="M75.3747 133.864C76.8123 128.757 77.6412 122.75 77.6412 116.321C77.6412 110.444 76.9486 104.92 75.7316 100.114C91.9281 102.818 104.273 116.899 104.273 133.864H75.3747ZM49.0486 133.864H19.7275C19.7275 116.746 32.2968 102.564 48.7096 100.043C47.4814 104.865 46.7821 110.415 46.7821 116.321C46.7821 122.75 47.6109 128.757 49.0486 133.864Z" fill="#0C1626"/>
<path fill-rule="evenodd" clip-rule="evenodd" d="M82.7139 123.719L85.3424 121.747C86.7855 120.665 88.7744 120.682 90.1982 121.79L91.5911 122.873L82.7139 123.719Z" fill="#E6E6E6"/>
<path fill-rule="evenodd" clip-rule="evenodd" d="M48.8953 99.2002C46.359 111.459 51.009 133.864 51.009 133.864H44.2453L38.3271 118.646L40.8635 114.841L38.3271 112.305L46.359 99.6229C46.359 99.6229 47.6447 99.223 48.8953 99.2002Z" fill="#0C092A"/>
<path fill-rule="evenodd" clip-rule="evenodd" d="M75.1047 99.2002C77.641 111.459 72.991 133.864 72.991 133.864H79.7547L85.6729 118.646L83.1365 114.841L85.6729 112.305L77.641 99.6229C77.641 99.6229 76.3553 99.223 75.1047 99.2002Z" fill="#0C092A"/>
<path fill-rule="evenodd" clip-rule="evenodd" d="M51.8551 96.4688C48.9922 98.412 47.2051 101.168 47.2051 104.225C47.2051 107.354 49.0769 110.168 52.0579 112.117L54.5693 110.139L56.5051 110.279L56.0824 108.947L56.1152 108.921C53.5365 107.592 51.8551 105.414 51.8551 102.952C51.8551 102.952 51.8551 102.952 51.8551 102.952V96.4688ZM72.146 102.952C72.146 102.952 72.146 102.952 72.146 102.952C72.1459 105.414 70.4646 107.592 67.8859 108.921L67.9187 108.947L67.496 110.279L69.4318 110.139L71.9432 112.117C74.9242 110.167 76.796 107.354 76.796 104.225C76.796 101.168 75.0088 98.412 72.146 96.4688V102.952Z" fill="#0C092A"/>
<path d="M56.082 78.908C56.082 81.1787 58.6853 82.7125 62.0002 82.7125C65.3152 82.7125 67.9184 81.1787 67.9184 78.908C67.9184 78.441 67.5169 78.0625 67.0729 78.0625C66.5265 78.0625 66.2825 78.4451 66.2275 78.908C65.7023 80.1499 64.4027 80.9017 62.0002 81.0216C59.5977 80.9017 58.2981 80.1499 57.7729 78.908C57.7179 78.4451 57.474 78.0625 56.9275 78.0625C56.4835 78.0625 56.082 78.441 56.082 78.908Z" fill="#0C092A"/>
<path fill-rule="evenodd" clip-rule="evenodd" d="M56.9268 70.4541C56.9268 72.3218 59.1979 73.8359 61.9995 73.8359C64.8011 73.8359 67.0722 72.3218 67.0722 70.4541" fill="black" fill-opacity="0.16"/>
<circle cx="51.009" cy="62.845" r="2.53636" fill="#0C092A"/>
<ellipse cx="72.9905" cy="62.845" rx="2.53637" ry="2.53636" fill="#0C092A"/>
<path d="M44.9341 57.4164C46.589 55.0877 51.1261 53.7819 55.0342 54.7416C55.4877 54.853 55.9455 54.5756 56.0569 54.1222C56.1683 53.6687 55.8909 53.2109 55.4375 53.0995C50.8988 51.9849 45.6451 53.497 43.5558 56.4369C43.2853 56.8175 43.3746 57.3453 43.7552 57.6158C44.1358 57.8863 44.6636 57.797 44.9341 57.4164Z" fill="#0C092A"/>
<path d="M79.0649 57.4164C77.41 55.0877 72.873 53.7819 68.9648 54.7416C68.5114 54.853 68.0535 54.5756 67.9421 54.1222C67.8308 53.6687 68.1081 53.2109 68.5616 53.0995C73.1002 51.9849 78.354 53.497 80.4432 56.4369C80.7137 56.8175 80.6245 57.3453 80.2438 57.6158C79.8632 57.8863 79.3354 57.797 79.0649 57.4164Z" fill="#0C092A"/>
<mask id="mask2_4084_24146" style="mask-type:luminance" maskUnits="userSpaceOnUse" x="6" y="15" width="112" height="119">
<rect x="6.2002" y="15.5" width="111.6" height="118.364" fill="white"/>
</mask>
<g mask="url(#mask2_4084_24146)">
<path fill-rule="evenodd" clip-rule="evenodd" d="M62.2139 85.606C57.3478 85.7658 55.1771 88.0917 53.5423 85.728C52.3153 83.9537 52.8287 80.9699 53.9752 79.2911C55.6065 76.9021 57.8194 78.0576 60.2938 77.7851C60.9666 77.711 61.6425 77.5242 62.2139 77.2186C62.7853 77.5242 63.4611 77.711 64.1339 77.7851C66.6084 78.0576 68.8212 76.9021 70.4527 79.2911C71.599 80.9699 72.1124 83.9537 70.8854 85.728C69.2506 88.0917 67.0801 85.4461 62.2139 85.606ZM85.8385 56.9277C84.3909 62.8775 83.7257 68.9475 82.676 74.966C82.4573 76.2206 82.2179 77.4707 81.9636 78.7192C81.9102 78.9813 81.8576 79.9548 81.5993 80.0781C80.8168 80.4519 79.222 78.4643 78.7956 78.0156C77.7246 76.8886 76.6628 75.7515 75.3584 74.8671C72.7229 73.0803 69.6372 72.0237 66.4265 71.773C65.0831 71.668 63.2666 71.8511 62.0005 72.6153C60.7345 71.8511 58.918 71.668 57.5744 71.773C54.3637 72.0237 51.278 73.0803 48.6425 74.8671C47.3381 75.7515 46.2764 76.8886 45.2053 78.0156C44.7789 78.4643 43.1842 80.4519 42.4017 80.0781C42.1433 79.9548 42.0907 78.9813 42.0373 78.7192C41.7831 77.4707 41.5436 76.2206 41.3249 74.966C40.2753 68.9475 39.6102 62.8775 38.1625 56.9277C37.7413 56.9277 37.3718 64.853 37.3248 65.5914C37.1335 68.5904 36.9101 71.5226 37.1955 74.5242C37.6877 79.7021 38.2007 86.1948 42.1461 90.1488C45.7111 93.7217 50.8871 94.4686 55.3515 96.7239C55.9263 97.0142 56.6888 97.3727 57.5111 97.6665C58.3772 98.3272 60.0951 98.7778 62.0741 98.7778C64.1499 98.7778 65.9384 98.2821 66.7579 97.5678C67.4769 97.2951 68.1377 96.9824 68.6494 96.7239C73.1135 94.4682 78.2898 93.7217 81.8548 90.1488C85.8002 86.1948 86.3132 79.7021 86.8055 74.5242C87.0908 71.5226 86.8675 68.5904 86.6763 65.5914C86.6291 64.853 86.2596 56.9277 85.8385 56.9277Z" fill="#0C092A"/>
<mask id="mask3_4084_24146" style="mask-type:luminance" maskUnits="userSpaceOnUse" x="37" y="56" width="50" height="43">
<path fill-rule="evenodd" clip-rule="evenodd" d="M62.2139 85.606C57.3478 85.7658 55.1771 88.0917 53.5423 85.728C52.3153 83.9537 52.8287 80.9699 53.9752 79.2911C55.6065 76.9021 57.8194 78.0576 60.2938 77.7851C60.9666 77.711 61.6425 77.5242 62.2139 77.2186C62.7853 77.5242 63.4611 77.711 64.1339 77.7851C66.6084 78.0576 68.8212 76.9021 70.4527 79.2911C71.599 80.9699 72.1124 83.9537 70.8854 85.728C69.2506 88.0917 67.0801 85.4461 62.2139 85.606ZM85.8385 56.9277C84.3909 62.8775 83.7257 68.9475 82.676 74.966C82.4573 76.2206 82.2179 77.4707 81.9636 78.7192C81.9102 78.9813 81.8576 79.9548 81.5993 80.0781C80.8168 80.4519 79.222 78.4643 78.7956 78.0156C77.7246 76.8886 76.6628 75.7515 75.3584 74.8671C72.7229 73.0803 69.6372 72.0237 66.4265 71.773C65.0831 71.668 63.2666 71.8511 62.0005 72.6153C60.7345 71.8511 58.918 71.668 57.5744 71.773C54.3637 72.0237 51.278 73.0803 48.6425 74.8671C47.3381 75.7515 46.2764 76.8886 45.2053 78.0156C44.7789 78.4643 43.1842 80.4519 42.4017 80.0781C42.1433 79.9548 42.0907 78.9813 42.0373 78.7192C41.7831 77.4707 41.5436 76.2206 41.3249 74.966C40.2753 68.9475 39.6102 62.8775 38.1625 56.9277C37.7413 56.9277 37.3718 64.853 37.3248 65.5914C37.1335 68.5904 36.9101 71.5226 37.1955 74.5242C37.6877 79.7021 38.2007 86.1948 42.1461 90.1488C45.7111 93.7217 50.8871 94.4686 55.3515 96.7239C55.9263 97.0142 56.6888 97.3727 57.5111 97.6665C58.3772 98.3272 60.0951 98.7778 62.0741 98.7778C64.1499 98.7778 65.9384 98.2821 66.7579 97.5678C67.4769 97.2951 68.1377 96.9824 68.6494 96.7239C73.1135 94.4682 78.2898 93.7217 81.8548 90.1488C85.8002 86.1948 86.3132 79.7021 86.8055 74.5242C87.0908 71.5226 86.8675 68.5904 86.6763 65.5914C86.6291 64.853 86.2596 56.9277 85.8385 56.9277Z" fill="white"/>
</mask>
<g mask="url(#mask3_4084_24146)">
<rect x="26.4912" y="45.9365" width="71.0182" height="64.2546" fill="#0C092A"/>
</g>
<path fill-rule="evenodd" clip-rule="evenodd" d="M45.621 37.4911C45.673 37.4681 45.544 37.4593 45.2339 37.4646C45.6108 37.4639 45.7398 37.4727 45.621 37.4911ZM42.1819 30.8457C42.181 30.8374 42.189 30.9095 42.1819 30.8457V30.8457ZM87.6874 45.4147C87.5757 44.0126 87.3779 42.6189 87.0455 41.2489C86.7816 40.1601 86.4209 39.1211 85.9944 38.0823C85.7368 37.4546 85.1352 36.5926 85.0645 35.9155C84.9948 35.2486 85.5152 34.5098 85.6263 33.7334C85.7341 32.9777 85.7157 32.1832 85.5607 31.4344C85.2086 29.7338 84.0415 28.1524 82.2393 27.7091C81.837 27.6101 80.9865 27.7321 80.7022 27.4978C80.3762 27.2291 80.1492 26.3138 79.8541 25.9466C79.0127 24.9 77.7004 24.226 76.3164 24.461C75.2972 24.6339 75.8825 24.8447 75.1184 24.2449C74.6936 23.9114 74.3762 23.4023 73.9636 23.0413C73.3433 22.499 72.6318 22.0347 71.8956 21.6538C69.9693 20.657 67.7724 19.9324 65.6207 19.5792C61.6955 18.9349 57.5063 19.4966 53.7017 20.5174C51.8085 21.0253 49.9025 21.6699 48.1442 22.5224C47.3903 22.8879 46.9551 23.1911 46.169 23.2868C44.9309 23.4376 43.8825 23.4301 42.7097 23.9551C39.1011 25.5707 37.4758 29.319 38.88 32.9059C39.1624 33.6274 39.5449 34.2609 40.0721 34.8436C40.715 35.554 40.9475 35.4142 40.3938 36.2312C39.5658 37.4529 38.8678 38.7556 38.2994 40.1083C36.8076 43.6599 36.558 47.66 36.6552 51.4477C36.6892 52.7738 36.746 54.1161 36.9551 55.4293C37.0454 55.9978 37.0707 57.0666 37.4971 57.4884C37.7135 57.7023 38.0217 57.8216 38.3291 57.7364C39.0518 57.5362 38.8033 57.003 38.8201 56.5079C38.9046 54.0208 38.7905 51.8205 39.382 49.3633C39.819 47.5479 40.5471 45.8991 41.4908 44.2758C42.6908 42.2111 43.9861 40.3978 45.6364 38.6299C46.0244 38.2141 46.1091 38.0379 46.6294 38.0078C47.0233 37.985 47.5996 38.2548 47.9827 38.3482C48.8272 38.554 49.6733 38.7575 50.5332 38.8961C52.1141 39.151 53.6796 39.1681 55.2748 39.1181C58.4141 39.0199 61.567 38.7997 64.6107 38.0091C66.6322 37.4842 68.4243 36.5419 70.3606 35.8512C70.3951 35.8389 70.8804 35.4931 70.9655 35.5072C71.0842 35.5268 71.8012 36.279 71.9222 36.3738C72.863 37.1116 73.895 37.4214 74.9111 37.9927C76.1638 38.6971 74.9506 37.6891 75.6415 38.567C75.8429 38.8227 75.946 39.2968 76.1076 39.5864C76.6216 40.5092 77.3367 41.3201 78.192 41.9636C79.0185 42.5853 80.2606 42.8857 80.682 43.6949C81.007 44.3192 81.1165 45.1677 81.3787 45.8342C82.0667 47.5822 82.9752 49.2124 83.8837 50.8589C84.6156 52.1857 85.4162 53.3448 85.4976 54.861C85.5259 55.3888 85.0237 58.5547 86.2469 57.5918C86.4283 57.4491 86.8193 55.835 86.8996 55.5611C87.2256 54.4482 87.3415 53.2863 87.4891 52.1429C87.7827 49.8688 87.8791 47.7051 87.6874 45.4147Z" fill="#28354B"/>
<mask id="mask4_4084_24146" style="mask-type:luminance" maskUnits="userSpaceOnUse" x="36" y="19" width="52" height="39">
<path fill-rule="evenodd" clip-rule="evenodd" d="M45.621 37.4911C45.673 37.4681 45.544 37.4593 45.2339 37.4646C45.6108 37.4639 45.7398 37.4727 45.621 37.4911ZM42.1819 30.8457C42.181 30.8374 42.189 30.9095 42.1819 30.8457V30.8457ZM87.6874 45.4147C87.5758 44.0126 87.3779 42.6189 87.0455 41.2489C86.7816 40.1601 86.4209 39.1211 85.9944 38.0823C85.7368 37.4546 85.1352 36.5926 85.0645 35.9155C84.9948 35.2486 85.5152 34.5098 85.6263 33.7334C85.7341 32.9777 85.7157 32.1832 85.5607 31.4344C85.2086 29.7338 84.0415 28.1524 82.2393 27.7091C81.837 27.6101 80.9865 27.7321 80.7022 27.4978C80.3762 27.2291 80.1492 26.3138 79.8541 25.9466C79.0127 24.9 77.7004 24.226 76.3164 24.461C75.2972 24.6339 75.8825 24.8447 75.1184 24.2449C74.6936 23.9114 74.3762 23.4023 73.9636 23.0413C73.3433 22.499 72.6318 22.0347 71.8956 21.6538C69.9693 20.657 67.7724 19.9324 65.6207 19.5792C61.6955 18.9349 57.5063 19.4966 53.7017 20.5174C51.8085 21.0253 49.9025 21.6699 48.1442 22.5224C47.3903 22.8879 46.9551 23.1911 46.169 23.2868C44.9309 23.4376 43.8825 23.4301 42.7097 23.9551C39.1011 25.5707 37.4758 29.319 38.88 32.9059C39.1624 33.6274 39.5449 34.2609 40.0721 34.8436C40.715 35.554 40.9475 35.4142 40.3938 36.2312C39.5658 37.4529 38.8678 38.7556 38.2994 40.1083C36.8076 43.6599 36.558 47.66 36.6552 51.4477C36.6892 52.7738 36.746 54.1161 36.9551 55.4293C37.0454 55.9978 37.0707 57.0666 37.4971 57.4884C37.7135 57.7023 38.0217 57.8216 38.3291 57.7364C39.0518 57.5362 38.8033 57.003 38.8201 56.5079C38.9046 54.0208 38.7905 51.8205 39.382 49.3633C39.819 47.5479 40.5471 45.8991 41.4908 44.2758C42.6908 42.2111 43.9861 40.3978 45.6364 38.6299C46.0244 38.2141 46.1091 38.0379 46.6294 38.0078C47.0233 37.985 47.5996 38.2548 47.9827 38.3482C48.8272 38.554 49.6733 38.7575 50.5332 38.8961C52.1141 39.151 53.6796 39.1681 55.2748 39.1181C58.4141 39.0199 61.567 38.7997 64.6107 38.0091C66.6322 37.4842 68.4243 36.5419 70.3606 35.8512C70.3951 35.8389 70.8804 35.4931 70.9655 35.5072C71.0842 35.5268 71.8012 36.279 71.9222 36.3738C72.863 37.1116 73.895 37.4214 74.9111 37.9927C76.1638 38.6971 74.9506 37.6891 75.6415 38.567C75.8429 38.8227 75.946 39.2968 76.1076 39.5864C76.6216 40.5092 77.3367 41.3201 78.1921 41.9636C79.0185 42.5853 80.2606 42.8857 80.682 43.6949C81.007 44.3192 81.1165 45.1677 81.3787 45.8342C82.0667 47.5822 82.9752 49.2124 83.8837 50.8589C84.6156 52.1857 85.4162 53.3448 85.4976 54.861C85.5259 55.3888 85.0237 58.5547 86.247 57.5918C86.4283 57.4491 86.8193 55.835 86.8996 55.5611C87.2256 54.4482 87.3415 53.2863 87.4891 52.1429C87.7827 49.8688 87.8791 47.7051 87.6874 45.4147Z" fill="white"/>
</mask>
<g mask="url(#mask4_4084_24146)">
<rect x="6.2002" y="15.5" width="111.6" height="118.364" fill="#0C092A"/>
</g>
</g>
</g>
<defs>
<clipPath id="clip0_4084_24146">
<rect width="124" height="124" rx="62" fill="white"/>
</clipPath>
</defs>
</svg>
