<svg width="41" height="41" viewBox="0 0 41 41" fill="none" xmlns="http://www.w3.org/2000/svg">
<path d="M18.906 1.25414C20.1472 0.534128 21.679 0.534129 22.9202 1.25414L29.5631 5.1076L36.2217 8.93379C37.4659 9.6487 38.2318 10.9753 38.2288 12.4102L38.2131 20.0898L38.2288 27.7695C38.2318 29.2044 37.4659 30.531 36.2217 31.2459L29.5631 35.0721L22.9202 38.9255C21.679 39.6456 20.1472 39.6456 18.906 38.9255L12.2631 35.0721L5.60444 31.2459C4.36028 30.531 3.59439 29.2044 3.59734 27.7695L3.61309 20.0898L3.59734 12.4102C3.59439 10.9753 4.36029 9.6487 5.60444 8.93379L12.2631 5.1076L18.906 1.25414Z" fill="#FFD54B"/>
<g clip-path="url(#clip0_4069_13297)">
<path d="M20.9131 15.0898L24.2464 20.0898L28.4131 16.7565L26.7464 25.0898H15.0798L13.4131 16.7565L17.5798 20.0898L20.9131 15.0898Z" fill="white" stroke="white" stroke-width="1.5" stroke-linecap="round" stroke-linejoin="round"/>
</g>
<defs>
<clipPath id="clip0_4069_13297">
<rect width="20" height="20" fill="white" transform="translate(10.9131 10.0898)"/>
</clipPath>
</defs>
</svg>
