<svg width="25" height="33" viewBox="0 0 25 33" fill="none" xmlns="http://www.w3.org/2000/svg">
<g filter="url(#filter0_d_4068_9490)">
<path d="M17.5241 4.10693C17.6753 4.19558 17.7924 4.33347 17.8561 4.49806C17.9198 4.66266 17.9264 4.84424 17.8749 5.01313L15.0916 14.1564H20.227C20.3779 14.1563 20.5255 14.2009 20.6517 14.2847C20.7778 14.3685 20.8769 14.4878 20.9367 14.6279C20.9965 14.768 21.0145 14.9227 20.9883 15.073C20.9622 15.2232 20.893 15.3625 20.7895 15.4735L8.42633 28.754C8.3067 28.8826 8.14752 28.9664 7.97472 28.9919C7.80193 29.0173 7.6257 28.9828 7.47478 28.894C7.32386 28.8052 7.20713 28.6673 7.14363 28.5029C7.08013 28.3384 7.0736 28.1571 7.1251 27.9884L9.90837 18.8436H4.77301C4.62209 18.8437 4.47446 18.799 4.34834 18.7152C4.22222 18.6314 4.12313 18.5121 4.06331 18.3721C4.00348 18.232 3.98554 18.0773 4.01169 17.927C4.03785 17.7767 4.10695 17.6375 4.21048 17.5265L16.5737 4.24599C16.6931 4.11756 16.8521 4.03376 17.0246 4.00823C17.1972 3.9827 17.3732 4.01694 17.5241 4.10537V4.10693Z" fill="url(#paint0_linear_4068_9490)"/>
</g>
<defs>
<filter id="filter0_d_4068_9490" x="0" y="0" width="25" height="33" filterUnits="userSpaceOnUse" color-interpolation-filters="sRGB">
<feFlood flood-opacity="0" result="BackgroundImageFix"/>
<feColorMatrix in="SourceAlpha" type="matrix" values="0 0 0 0 0 0 0 0 0 0 0 0 0 0 0 0 0 0 127 0" result="hardAlpha"/>
<feOffset/>
<feGaussianBlur stdDeviation="2"/>
<feComposite in2="hardAlpha" operator="out"/>
<feColorMatrix type="matrix" values="0 0 0 0 0.996078 0 0 0 0 0.541176 0 0 0 0 0.352941 0 0 0 1 0"/>
<feBlend mode="normal" in2="BackgroundImageFix" result="effect1_dropShadow_4068_9490"/>
<feBlend mode="normal" in="SourceGraphic" in2="effect1_dropShadow_4068_9490" result="shape"/>
</filter>
<linearGradient id="paint0_linear_4068_9490" x1="12.5" y1="4" x2="12.5" y2="29" gradientUnits="userSpaceOnUse">
<stop stop-color="#FD5D57"/>
<stop offset="1" stop-color="#FDB75D"/>
</linearGradient>
</defs>
</svg>
