<svg width="140" height="141" viewBox="0 0 140 141" fill="none" xmlns="http://www.w3.org/2000/svg">
<path d="M112.958 70.2578C112.798 47.916 95.1619 29.1493 72.8689 27.6972C46.5199 25.9848 24.7578 48.1863 27.2314 74.674C29.1943 95.6439 45.7588 111.857 66.7699 113.409C67.8515 113.489 68.9331 113.529 70.0047 113.529C74.9821 113.529 79.7591 112.678 84.2157 111.106L56.7451 83.6368C61.432 78.9501 67.5811 76.5968 73.7202 76.5968C79.8593 76.5968 86.0084 78.9501 90.6953 83.6368L135.752 128.681C127.329 137.093 114.22 137.954 104.846 131.265C93.4394 137.834 80.0295 141.289 65.7784 140.448C31.4977 138.415 3.43621 111.336 0.30157 77.1375C-3.61422 34.4168 31.1372 -1.42424 73.5099 0.658724C111.236 2.51136 140.92 34.607 139.978 72.3507C139.858 76.9072 139.998 94.7726 139.998 94.7726C130 94.7726 112.958 83.9172 112.958 70.2578Z" fill="url(#paint0_linear_4068_8646)"/>
<defs>
<linearGradient id="paint0_linear_4068_8646" x1="-2.79688e-07" y1="0.802993" x2="140" y2="140.342" gradientUnits="userSpaceOnUse">
<stop stop-color="#7C62FB"/>
<stop offset="1" stop-color="#4A3A95"/>
</linearGradient>
</defs>
</svg>
