<svg width="328" height="303" viewBox="0 0 328 303" fill="none" xmlns="http://www.w3.org/2000/svg">
<g clip-path="url(#clip0_4068_8648)">
<path d="M210.142 241.751L213.294 248.858C210.732 248.448 208.349 250.648 208.296 253.474C208.242 256.3 210.527 259.24 213.09 259.642C212.6 261.836 210.487 262.803 208.653 263.69C206.818 264.576 204.841 266.047 204.978 268.385C205.087 270.262 206.631 271.919 208.27 272.586C209.909 273.252 211.629 273.149 213.289 273.038C210.773 275.684 210.528 280.658 212.737 284.227C214.947 287.795 219.359 289.552 222.662 288.178C220.328 291.099 220.835 296.446 223.732 299.459C226.652 302.497 230.884 302.791 234.584 302.471C244.006 301.67 252.983 298.092 260.393 292.185C263.221 289.925 265.863 287.267 267.476 283.8C269.09 280.332 269.565 275.943 268.062 271.997C268.468 276.94 273.387 280.843 277.813 281.062C282.238 281.28 286.102 278.774 289.386 275.915C293.753 272.113 297.796 266.784 297.196 260.209C296.899 256.954 295.486 253.824 294.099 250.792L291.411 244.913C290.326 242.54 289.216 240.126 287.583 238.135C285.949 236.143 283.682 234.601 281.414 234.616C281.932 232.233 282.453 229.761 282.019 227.228C281.584 224.696 279.919 222.074 277.656 221.481C274.774 220.727 272.333 223.4 269.435 223.148C266.647 222.906 264.343 220.092 261.636 218.977C260.521 218.492 259.29 218.345 258.093 218.553C256.897 218.761 255.786 219.316 254.898 220.149C253.182 221.834 252.467 224.681 253.082 227.374C253.622 229.734 255.058 231.815 255.929 234.091C256.801 236.366 256.936 239.293 255.262 240.535C253.243 242.035 250.168 239.994 248.59 237.525C247.013 235.056 246.107 232.067 244.111 229.99C241.756 227.54 238.07 226.965 235.645 228.671C233.22 230.377 232.293 234.198 233.516 237.445C234.515 240.101 236.805 242.787 236.011 245.288C235.171 247.93 231.499 247.596 229.284 245.728C227.069 243.86 225.598 241.047 223.41 239.137C221.187 237.198 218.285 236.348 215.738 236.891C214.445 237.193 213.25 237.817 212.26 238.705C211.271 239.594 210.52 240.72 210.078 241.977" fill="#6C63FF"/>
<path d="M261.172 221.778L254.632 224.833C253.649 225.322 252.534 225.473 251.458 225.264C250.508 225.038 249.867 224.454 249.698 223.662L248.176 216.514C247.889 215.166 248.999 213.57 250.817 212.721L254.428 211.034C256.245 210.185 258.174 210.36 259.013 211.451L263.463 217.23C263.957 217.871 263.987 218.74 263.546 219.615C263.011 220.578 262.177 221.337 261.172 221.778Z" fill="#3F3D56"/>
<path d="M58.3873 89.6737C64.5355 72.751 74.1301 57.306 86.5566 44.3277C97.0995 33.3211 113.508 33.7784 113.508 33.7784L113.602 33.6615C117.551 28.764 122.85 25.1485 128.835 23.2684C134.819 21.3882 141.223 21.3273 147.242 23.0932C148.806 23.5447 150.009 23.7448 150.582 23.5437C161.016 19.8712 160.525 11.5822 169.528 4.90453C185.29 -6.78762 237.573 6.6055 244.945 28.1204C250.92 45.5578 277.592 54.0095 287.557 67.3477C289.115 69.4333 290.644 71.5431 292.143 73.677C292.846 74.6684 293.541 75.6672 294.228 76.6735C301.288 86.9553 307.622 97.7228 313.182 108.897C316.828 116.197 319.997 123.729 322.669 131.444C333.061 161.995 329.507 184.758 300.853 179.134C297.461 178.467 294.151 177.87 290.922 177.343C286.246 176.575 281.734 175.945 277.384 175.451C271.527 174.781 265.954 174.342 260.667 174.134C258.889 174.062 257.144 174.014 255.431 173.989C230.108 173.636 211.325 178.429 197.015 185.87C194.589 187.128 192.29 188.459 190.119 189.862C186.802 191.995 183.634 194.354 180.639 196.924C176.495 200.501 172.673 204.439 169.218 208.693L169.029 208.927C152.291 229.515 146.783 252.308 135.141 256.321C85.3725 273.479 53.8962 211.281 50.6682 150.438C50.5052 147.372 50.4152 144.315 50.3981 141.266C50.388 139.904 50.3947 138.545 50.4181 137.189C50.4692 133.653 50.6242 130.14 50.8837 126.67C50.9807 125.343 51.0931 124.023 51.2211 122.71C51.3621 121.294 51.5154 119.887 51.6927 118.488C52.9588 108.236 55.1736 98.4826 58.3873 89.6737Z" fill="#6C63FF"/>
<path d="M212.644 123.149C208.67 125.01 208.604 133.346 209.85 136.047L212.109 140.935L226.506 134.208L224.247 129.32C222.998 126.62 216.622 121.295 212.644 123.149Z" fill="#3F3D56"/>
<path d="M173.956 193.336C173.703 193.336 173.453 193.275 173.229 193.157C173.004 193.039 172.811 192.869 172.666 192.66C172.52 192.451 172.428 192.21 172.395 191.958C172.362 191.705 172.39 191.448 172.477 191.209C172.547 191.014 172.656 190.834 172.796 190.681C172.936 190.528 173.104 190.404 173.292 190.317L247.641 155.578C247.828 155.491 248.031 155.441 248.238 155.432C248.444 155.423 248.65 155.455 248.844 155.527C249.039 155.598 249.217 155.707 249.369 155.848C249.521 155.988 249.644 156.158 249.732 156.346C249.907 156.727 249.925 157.162 249.782 157.556C249.638 157.951 249.346 158.272 248.967 158.449L174.619 193.188C174.411 193.285 174.185 193.336 173.956 193.336Z" fill="#3F3D56"/>
<path d="M232.114 137.326L210.861 147.256L244.199 219.416L265.451 209.486L232.114 137.326Z" fill="#E6E6E6"/>
<path d="M152.334 46.4883C148.36 48.3493 148.294 56.6847 149.54 59.3855L151.799 64.2741L166.196 57.5473L163.937 52.6587C162.688 49.959 156.312 44.6337 152.334 46.4883Z" fill="#3F3D56"/>
<path d="M241.389 230.073L234.849 233.128C233.866 233.616 232.751 233.768 231.675 233.559C230.726 233.333 230.084 232.749 229.915 231.956L228.394 224.809C228.106 223.461 229.217 221.865 231.034 221.016L234.645 219.329C236.463 218.48 238.391 218.655 239.23 219.746L243.681 225.525C244.174 226.165 244.204 227.035 243.764 227.91C243.228 228.873 242.394 229.632 241.389 230.073Z" fill="#3F3D56"/>
<path d="M221.283 240.105L214.743 243.161C213.76 243.649 212.645 243.8 211.569 243.591C210.619 243.365 209.978 242.781 209.809 241.989L208.287 234.841C208 233.493 209.11 231.897 210.927 231.048L214.539 229.361C216.356 228.512 218.285 228.687 219.124 229.778L223.574 235.557C224.068 236.198 224.098 237.067 223.657 237.943C223.122 238.905 222.288 239.664 221.283 240.105Z" fill="#3F3D56"/>
<path d="M177.474 72.9401L156.222 82.8701L223.61 228.733L244.863 218.803L177.474 72.9401Z" fill="#E6E6E6"/>
<path d="M199.526 148.132L197.141 142.855L198.514 142.218L200.891 147.478L235.317 224.241L233.946 224.881" fill="#3F3D56"/>
<path d="M226.423 143.746L224.038 138.469L225.411 137.832L227.788 143.092L262.214 219.855L260.843 220.496" fill="#3F3D56"/>
<path d="M187.506 84.6131L158.71 98.0678C156.876 95.1994 151.35 80.5006 152.591 76.1395L151.659 71.9806L171.542 62.6904L174.204 65.9828C178.154 67.2018 185.845 81.0081 187.506 84.6131Z" fill="#E6E6E6"/>
<path d="M172.373 62.8687L151.855 72.4557C151.098 72.8095 150.291 72.6794 150.054 72.1651C150.02 72.0909 149.998 72.0114 149.991 71.9301L148.929 60.5374C148.884 60.0496 149.299 59.4967 149.933 59.2005L163.54 52.8427C164.174 52.5464 164.862 52.584 165.203 52.9336L173.176 61.0971C173.584 61.5146 173.362 62.2293 172.681 62.6934C172.583 62.7601 172.48 62.8187 172.373 62.8687Z" fill="#E6E6E6"/>
<path d="M188.466 152.125C188.244 152.126 188.022 152.1 187.807 152.047C187.502 151.984 187.216 151.851 186.971 151.659C186.726 151.468 186.527 151.222 186.39 150.941L173.846 123.789C173.327 122.665 174.024 121.227 175.4 120.584L193.768 112.002C195.144 111.359 196.686 111.751 197.205 112.875L209.749 140.027C209.875 140.313 209.933 140.624 209.921 140.936C209.908 141.249 209.825 141.554 209.676 141.829C209.354 142.451 208.832 142.945 208.196 143.231L189.828 151.814C189.402 152.016 188.937 152.122 188.466 152.125Z" fill="#3F3D56"/>
<path d="M190.978 156.236L169.726 166.166L203.063 238.326L224.315 228.396L190.978 156.236Z" fill="#E6E6E6"/>
<path d="M164.796 64.0583L158.563 66.9703C157.361 67.5323 155.738 66.5959 154.947 64.8833C154.156 63.1707 154.491 61.3198 155.693 60.7578L161.926 57.8458C163.128 57.2839 164.751 58.2202 165.542 59.9328C166.333 61.6454 165.998 63.4964 164.796 64.0583Z" fill="#3F3D56"/>
<path d="M171.924 141.865C167.949 143.726 167.883 152.062 169.13 154.762L171.388 159.651L185.785 152.924L183.526 148.036C182.278 145.336 175.901 140.011 171.924 141.865Z" fill="#3F3D56"/>
<path d="M105.9 125.227C104.496 126.167 103.06 123.929 104.49 123.03C105.894 122.089 107.331 124.328 105.9 125.227Z" fill="#E6E6E6"/>
<path d="M252.014 93.0608C250.611 94.0014 249.174 91.7628 250.605 90.864C252.008 89.9234 253.445 92.1621 252.014 93.0608Z" fill="#E6E6E6"/>
<path d="M152.424 118.648C151.02 119.588 149.584 117.35 151.014 116.451C152.418 115.51 153.855 117.749 152.424 118.648Z" fill="#E6E6E6"/>
<path d="M105.9 206.373C104.496 207.314 103.06 205.075 104.49 204.176C105.894 203.236 107.331 205.475 105.9 206.373Z" fill="#E6E6E6"/>
<path d="M177.503 23.2454C176.1 24.186 174.663 21.9473 176.094 21.0485C177.497 20.108 178.934 22.3467 177.503 23.2454Z" fill="#E6E6E6"/>
<path d="M108.445 66.3772C107.041 67.3178 105.604 65.0792 107.035 64.1804C108.439 63.2398 109.875 65.4785 108.445 66.3772Z" fill="#E6E6E6"/>
<path d="M207.773 54.0119L206.88 53.8148L207.075 52.9164L206.48 52.7852L206.284 53.6836L205.391 53.487L205.26 54.0857L206.153 54.2827L205.958 55.1808L206.553 55.312L206.749 54.4136L207.642 54.6106L207.773 54.0119Z" fill="#E6E6E6"/>
<path d="M62.3501 128.864L61.457 128.667L61.6526 127.769L61.0572 127.638L60.8613 128.536L59.9679 128.339L59.8374 128.938L60.7308 129.135L60.5353 130.033L61.1306 130.164L61.3265 129.266L62.2196 129.463L62.3501 128.864Z" fill="#E6E6E6"/>
<path d="M245.497 167.046C244.754 167.392 243.904 167.428 243.135 167.145C242.366 166.862 241.739 166.284 241.393 165.537L237.718 157.582C237.374 156.834 237.339 155.98 237.62 155.207C237.902 154.434 238.477 153.805 239.219 153.458C239.962 153.111 240.811 153.075 241.58 153.357C242.349 153.639 242.975 154.217 243.321 154.963L246.997 162.919C247.341 163.667 247.377 164.521 247.095 165.294C246.814 166.068 246.239 166.698 245.497 167.046Z" fill="#3F3D56"/>
<path d="M182.98 196.288C182.237 196.634 181.388 196.67 180.618 196.387C179.849 196.104 179.223 195.526 178.877 194.78L175.201 186.824C174.857 186.077 174.822 185.223 175.103 184.45C175.385 183.676 175.96 183.047 176.703 182.7C177.445 182.353 178.294 182.317 179.063 182.599C179.833 182.882 180.459 183.459 180.805 184.205L184.48 192.161C184.825 192.909 184.86 193.763 184.579 194.537C184.298 195.31 183.723 195.94 182.98 196.288Z" fill="#3F3D56"/>
<path d="M239.834 149.664L215.189 161.179C213.62 158.724 208.89 146.144 209.952 142.411L210.473 138.236L225.189 130.976L228.45 133.719C233.044 132.157 239.797 143.606 239.834 149.664Z" fill="#E6E6E6"/>
<path d="M228.392 148.865L222.16 151.777C220.957 152.339 219.128 150.954 218.081 148.69C217.035 146.425 217.163 144.125 218.365 143.563L224.598 140.651C225.8 140.089 227.63 141.475 228.676 143.739C229.723 146.003 229.595 148.303 228.392 148.865Z" fill="#3F3D56"/>
<path d="M175.537 163.849L173.152 158.572L174.525 157.936L176.903 163.196L211.328 239.958L209.957 240.599" fill="#3F3D56"/>
<path d="M199.113 168.379L174.468 179.895C170.832 178.007 165.276 165.654 169.231 161.127L169.753 156.952L184.468 149.691L187.729 152.435C191.11 153.478 197.692 165.294 199.113 168.379Z" fill="#E6E6E6"/>
<path d="M187.164 166.483L180.932 169.395C179.729 169.957 178.013 168.818 177.107 166.856C176.201 164.895 176.442 162.841 177.645 162.279L183.877 159.367C185.08 158.805 186.796 159.944 187.702 161.906C188.608 163.867 188.367 165.921 187.164 166.483Z" fill="#3F3D56"/>
<path d="M62.2589 113.097C82.9349 113.097 99.6961 96.2411 99.6961 75.448C99.6961 54.6549 82.9349 37.7988 62.2589 37.7988C41.583 37.7988 24.8218 54.6549 24.8218 75.448C24.8218 96.2411 41.583 113.097 62.2589 113.097Z" fill="#FF6584"/>
<path opacity="0.3" d="M215.757 114.661L238.507 47.8398L213.526 113.861C213.402 114.018 213.317 114.202 213.279 114.398C213.24 114.595 213.248 114.797 213.303 114.989C213.358 115.182 213.458 115.358 213.594 115.504C213.73 115.65 213.898 115.761 214.086 115.828C214.273 115.895 214.474 115.916 214.671 115.89C214.868 115.864 215.056 115.79 215.219 115.676C215.383 115.562 215.517 115.411 215.61 115.234C215.703 115.058 215.754 114.861 215.757 114.661Z" fill="#F0F0F0"/>
<path d="M273.749 74.8315C269.295 76.32 264.358 77.7822 258.937 79.2181C230.897 86.6423 193.313 92.4335 153.108 95.5252C112.903 98.617 74.8798 98.6393 46.0437 95.5889C31.9967 94.1028 20.8863 91.9654 13.0213 89.2357C4.69446 86.3461 0.319105 82.8639 0.0165983 78.8864C-0.572488 71.1373 14.6326 64.317 27.4918 59.9601L27.8401 60.9993C10.1809 66.9824 0.685924 73.3053 1.10398 78.8028C1.63621 85.8048 18.0577 91.5254 46.1577 94.4983C74.9305 97.5421 112.883 97.5187 153.025 94.432C193.166 91.3451 230.682 85.5653 258.66 78.1576C285.983 70.9236 301.349 62.7583 300.817 55.7562C300.375 49.9426 288.98 44.9694 268.731 41.752L268.901 40.6689C283.614 43.0068 301.283 47.5073 301.904 55.6726C302.206 59.6502 298.408 63.7607 290.615 67.8899C286.173 70.2436 280.528 72.5658 273.749 74.8315Z" fill="#3F3D56"/>
<path d="M284.75 141.606C286.898 141.606 288.64 139.855 288.64 137.694C288.64 135.534 286.898 133.782 284.75 133.782C282.601 133.782 280.86 135.534 280.86 137.694C280.86 139.855 282.601 141.606 284.75 141.606Z" fill="#FF6584"/>
<path d="M309.466 247.609C311.614 247.609 313.356 245.858 313.356 243.697C313.356 241.537 311.614 239.785 309.466 239.785C307.317 239.785 305.576 241.537 305.576 243.697C305.576 245.858 307.317 247.609 309.466 247.609Z" fill="#6C63FF"/>
<path d="M176.8 271.428C180.989 271.428 184.384 268.013 184.384 263.801C184.384 259.589 180.989 256.174 176.8 256.174C172.611 256.174 169.216 259.589 169.216 263.801C169.216 268.013 172.611 271.428 176.8 271.428Z" fill="#6C63FF"/>
<path d="M119.009 170.483C121.157 170.483 122.899 168.732 122.899 166.571C122.899 164.411 121.157 162.659 119.009 162.659C116.86 162.659 115.119 164.411 115.119 166.571C115.119 168.732 116.86 170.483 119.009 170.483Z" fill="#3F3D56"/>
<path d="M249.785 175.574L266.568 179.943L276.862 200.277L259.459 200.963L249.785 175.574Z" fill="#E6E6E6"/>
<path d="M211.046 146.262L220.283 155.556L243.744 206.567L239.424 210.32L211.046 146.262Z" fill="#CCCCCC"/>
<path d="M190.961 154.687L191.686 167.807L213.83 219.41L219.491 218.677L190.961 154.687Z" fill="#CCCCCC"/>
<path d="M190.356 207.692L181.317 222.57L187.981 244.381L200.961 232.703L190.356 207.692Z" fill="#E6E6E6"/>
<path d="M270.204 216.834C265.51 216.834 260.367 216.656 254.772 216.299C225.835 214.451 188.353 208.026 149.23 198.209C110.107 188.391 74.0172 176.352 47.6093 164.312C34.7453 158.446 24.8722 152.894 18.2646 147.809C11.269 142.426 8.20894 137.734 9.16925 133.863C11.0404 126.323 27.6083 124.673 41.1777 124.617L41.1823 125.714C22.548 125.791 11.5547 128.779 10.2274 134.129C8.53656 140.942 22.326 151.579 48.0596 163.313C74.4094 175.327 110.433 187.342 149.494 197.145C188.555 206.947 225.968 213.361 254.841 215.205C283.038 217.006 300.181 214.131 301.872 207.317C303.276 201.66 294.022 193.327 275.815 183.851L276.316 182.878C289.545 189.763 304.901 199.637 302.93 207.583C301.969 211.454 297.076 214.15 288.386 215.596C283.432 216.421 277.347 216.834 270.204 216.834Z" fill="#3F3D56"/>
</g>
<defs>
<clipPath id="clip0_4068_8648">
<rect width="328" height="302" fill="white" transform="translate(0 0.572266)"/>
</clipPath>
</defs>
</svg>
