<svg width="430" height="339" viewBox="0 0 430 339" fill="none" xmlns="http://www.w3.org/2000/svg">
<g clip-path="url(#clip0_4068_8759)">
<path d="M430 186.667C430 186.995 429.755 187.261 429.453 187.261H0V186.072H429.453C429.755 186.072 430 186.338 430 186.667Z" fill="#6C63FF"/>
<path d="M141.206 42.2822C150.17 42.2822 157.436 34.3882 157.436 24.6504C157.436 14.9126 150.17 7.01855 141.206 7.01855C132.243 7.01855 124.977 14.9126 124.977 24.6504C124.977 34.3882 132.243 42.2822 141.206 42.2822Z" fill="#FFB6B6"/>
<path d="M149.807 46.0029L128.444 52.6338L125.393 60.0936L118.526 95.7348V152.098C118.526 152.098 110.134 171.99 114.711 189.396C119.605 208.002 136.837 186.042 149.807 188.548C162.777 191.054 183.376 193.541 183.376 193.541L171.169 133.034L168.117 59.2648L149.807 46.0029Z" fill="#E6E6E6"/>
<path d="M145.775 30.4244L142.475 28.632C142.475 28.632 141.65 20.5664 140.001 18.7741C138.351 16.9817 138.351 16.0855 138.351 16.0855L140.826 12.5008C140.826 12.5008 128.452 19.6702 125.977 15.1893C123.503 10.7084 126.802 8.91606 126.802 8.91606L122.678 5.33134C122.678 5.33134 127.627 8.91606 128.452 6.22752C129.277 3.53897 134.226 1.71485 134.226 1.71485C134.226 1.71485 145.034 4.37164 144.167 1.71485C143.3 -0.941934 146.6 1.74661 147.425 2.64279C148.25 3.53897 155.674 12.5008 156.499 11.6046C157.324 10.7084 161.448 13.397 160.623 14.2931C159.798 15.1893 159.798 16.0855 160.623 16.9817C161.448 17.8779 166.397 27.7359 162.273 31.3206C158.148 34.9053 152.374 39.3862 153.199 42.9709C154.024 46.5557 153.199 31.3206 145.775 30.4244Z" fill="#2F2E41"/>
<path d="M65.7717 74.8174C61.6062 70.9163 60.0825 65.4191 62.3682 62.5394C64.6538 59.6598 69.8826 60.4884 74.0491 64.3916C75.7331 65.9259 77.0545 67.8761 77.9026 70.0789L95.3599 86.8503L87.9409 95.5827L71.5188 78.1219C69.3877 77.5349 67.417 76.4017 65.7717 74.8174Z" fill="#FFB6B6"/>
<path d="M125.575 60.3789L137.075 59.2432L147.159 111.495C149.081 121.451 143.073 131.172 133.863 133.009L125.575 134.661L72.7495 84.1308L80.4674 70.1532L119.424 96.7018L125.575 60.3789Z" fill="#E6E6E6"/>
<path d="M99.9029 292.749C99.9029 292.749 90.7822 311.151 91.4337 310.443C92.0852 309.736 103.16 313.982 103.16 313.982L109.675 295.58L99.9029 292.749Z" fill="#FFB6B6"/>
<path d="M86.4412 163.938C86.4412 163.938 81.7723 184.213 82.2433 183.353C82.7143 182.492 94.4109 183.645 94.4109 183.645L96.5541 164.067L86.4412 163.938Z" fill="#FFB6B6"/>
<path d="M167.656 160.528C147.045 163.674 128.428 160.932 113.258 148.01C113.258 148.01 102.183 188.353 122.379 192.599C142.575 196.846 165.051 189.547 167.656 182.469C170.262 175.392 167.656 160.528 167.656 160.528Z" fill="#2F2E41"/>
<path d="M129.219 173.268L106.743 230.818L96.3198 297.349L110.001 300.888L134.472 239.665L167.656 181.053L129.219 173.268Z" fill="#2F2E41"/>
<path d="M126.288 156.857C126.288 156.857 121.076 112.975 111.304 110.144C106.54 108.764 102.086 108.897 98.7712 109.397C95.4307 109.9 92.7677 112.673 92.1836 116.282L83.3032 171.145H95.8608L99.903 156.282L110.652 176.674L126.288 156.857Z" fill="#2F2E41"/>
<path d="M94.3655 178.09L81.949 176.675L80.033 184.46C80.033 184.46 59.8373 204.278 70.2609 205.693C80.6845 207.109 90.4567 199.323 90.4567 199.323L104.796 190.387C104.796 190.387 99.2516 174.33 95.3427 174.33C91.4339 174.33 94.3655 178.09 94.3655 178.09Z" fill="#2F2E41"/>
<path d="M100.88 310.797L88.4636 309.381L86.5477 317.167C86.5477 317.167 66.352 336.984 76.7756 338.4C87.1992 339.816 96.9713 332.03 96.9713 332.03L111.31 323.094C111.31 323.094 110.327 306.329 106.418 306.329C102.509 306.329 100.88 310.797 100.88 310.797Z" fill="#2F2E41"/>
<path d="M163.749 203.652C162.252 209.23 158.389 212.913 155.122 211.877C151.854 210.841 150.42 205.48 151.918 199.9C152.488 197.663 153.544 195.606 154.996 193.902L161.614 170.354L171.719 173.963L164.122 196.794C164.504 199.08 164.376 201.431 163.749 203.652Z" fill="#FFB6B6"/>
<path d="M170.743 59.3675L165.474 57.7529C160.506 68.4929 158.369 80.517 159.301 92.4945L161.902 125.916L153.321 184.659L170.139 189.386L183.393 115.666L170.743 59.3675Z" fill="#E6E6E6"/>
<path d="M68.1621 151.211C67.9314 150.444 66.1825 150.782 66.0146 150.096C65.8473 149.412 67.5255 148.839 68.8125 146.912C69.0447 146.565 70.5073 144.375 69.9463 143.455C68.883 141.709 61.4849 146.056 59.709 143.617C59.3193 143.081 59.1589 142.162 57.9979 140.452C57.5361 139.771 57.2397 139.443 56.8857 139.452C56.3833 139.466 56.2036 140.149 55.414 141.386C54.2299 143.241 53.8025 143.008 53.0225 144.528C52.4434 145.656 52.3748 146.377 51.9572 146.419C51.3663 146.479 51.1221 145.075 50.4 145.02C49.6632 144.964 48.9259 146.352 48.5604 147.437C47.8745 149.472 48.2992 151.027 48.3934 152.577C48.4957 154.262 48.2555 156.728 46.5707 159.893L30.6802 187.398C34.0928 181.791 43.78 166.5 47.683 160.892C48.8097 159.273 50.0205 157.647 51.8841 157.341C53.6783 157.047 55.8614 158.011 58.9086 157.955C59.2645 157.948 60.2549 157.916 60.4958 157.346C60.6949 156.875 60.2004 156.465 60.3803 156.022C60.6216 155.427 61.7072 155.682 63.1867 155.287C64.23 155.009 64.9387 154.549 65.5482 154.153C65.732 154.034 68.4693 152.233 68.1621 151.211Z" fill="#6C63FF"/>
<path d="M26.542 157.633C26.1288 157.535 25.7768 158.565 25.4184 158.457C25.0612 158.349 25.2865 157.288 24.7874 156.046C24.6975 155.822 24.1303 154.411 23.5524 154.444C22.4571 154.507 22.2865 159.706 20.6719 159.949C20.3176 160.003 19.8561 159.823 18.7483 159.949C18.3076 159.999 18.0737 160.062 17.976 160.253C17.8372 160.525 18.0938 160.818 18.4248 161.596C18.9211 162.762 18.6926 162.923 19.1541 163.778C19.4967 164.412 19.8025 164.657 19.7012 164.891C19.5579 165.224 18.8529 164.949 18.6199 165.318C18.3822 165.695 18.7965 166.489 19.1809 166.996C19.9024 167.949 20.7276 168.171 21.455 168.568C22.2455 169 23.2902 169.84 24.234 171.651L32.0751 188.06C30.5266 184.623 26.414 175.046 25.0063 171.346C24.6 170.278 24.2149 169.164 24.6144 168.082C24.9991 167.04 26.0647 166.154 26.9185 164.513C27.0182 164.322 27.2895 163.784 27.1014 163.491C26.9459 163.249 26.618 163.394 26.4697 163.171C26.2708 162.87 26.6992 162.365 26.9477 161.462C27.123 160.826 27.1197 160.315 27.1168 159.876C27.116 159.744 27.0919 157.764 26.542 157.633Z" fill="#6C63FF"/>
<path d="M34.3647 161.637L34.6112 159.164L34.7624 159.009C35.4618 158.291 35.8993 157.53 36.0634 156.747C36.0895 156.623 36.1097 156.497 36.1304 156.369C36.2123 155.86 36.3139 155.228 36.7637 154.572C37.0155 154.207 37.6814 153.38 38.3682 153.669C38.5536 153.744 38.6787 153.875 38.7656 154.013C38.7874 153.989 38.8098 153.965 38.8337 153.939C39.1304 153.626 39.3379 153.511 39.5378 153.401C39.6914 153.316 39.8501 153.228 40.1185 152.995C40.2363 152.893 40.3306 152.801 40.41 152.723C40.651 152.49 40.9593 152.216 41.3815 152.324C41.8291 152.457 41.9826 152.921 42.0844 153.228C42.2662 153.776 42.3222 154.152 42.3593 154.402C42.3726 154.494 42.3881 154.596 42.3998 154.63C42.4977 154.898 43.7275 154.967 44.1903 154.996C45.2304 155.058 46.1304 155.111 46.3469 155.884C46.5022 156.438 46.1785 157.042 45.3571 157.727C45.1012 157.94 44.8454 158.087 44.6225 158.197C44.7596 158.337 44.8688 158.529 44.8755 158.79C44.8906 159.407 44.3077 159.881 43.1433 160.2C42.854 160.28 42.4647 160.387 41.9554 160.36C41.7156 160.347 41.5055 160.307 41.3263 160.27C41.2996 160.381 41.2506 160.496 41.1623 160.605C40.9032 160.928 40.4846 161.009 39.9165 160.828C39.2893 160.638 38.7937 160.38 38.3565 160.153C37.9745 159.955 37.6452 159.786 37.3688 159.74C36.8548 159.662 36.3756 160.006 35.802 160.465L34.3647 161.637Z" fill="#6C63FF"/>
<path d="M38.4667 147.556L36.203 147.924L36.0264 147.804C35.2096 147.251 34.4213 146.984 33.6825 147.011C33.5651 147.015 33.4478 147.025 33.3284 147.036C32.8551 147.079 32.2667 147.133 31.5683 146.826C31.1788 146.655 30.2741 146.164 30.3569 145.369C30.3771 145.156 30.4616 144.991 30.5628 144.864C30.5358 144.848 30.5089 144.83 30.4797 144.812C30.1256 144.579 29.9707 144.39 29.8217 144.208C29.707 144.068 29.5889 143.924 29.3131 143.701C29.1922 143.603 29.0863 143.527 28.9973 143.464C28.728 143.27 28.4061 143.015 28.3955 142.544C28.4003 142.04 28.7744 141.761 29.022 141.576C29.4635 141.246 29.7847 141.092 29.9977 140.989C30.0756 140.952 30.1632 140.91 30.19 140.889C30.4039 140.718 30.1538 139.408 30.0622 138.914C29.853 137.806 29.6719 136.847 30.3059 136.423C30.7594 136.119 31.3791 136.306 32.1972 136.996C32.4518 137.211 32.6476 137.442 32.8019 137.648C32.8925 137.469 33.0353 137.305 33.2658 137.232C33.8117 137.06 34.3813 137.552 34.961 138.695C35.1058 138.978 35.2991 139.361 35.4044 139.903C35.4538 140.158 35.4715 140.389 35.4838 140.587C35.5893 140.586 35.7043 140.609 35.8242 140.674C36.1769 140.864 36.356 141.283 36.3383 141.926C36.3284 142.634 36.2242 143.22 36.133 143.737C36.0538 144.189 35.9869 144.578 36.0158 144.88C36.0767 145.44 36.5052 145.856 37.0592 146.342L38.4667 147.556Z" fill="#6C63FF"/>
<path d="M38.7715 140.171L39.0179 137.699L39.1691 137.543C39.8685 136.825 40.306 136.064 40.4701 135.281C40.4963 135.157 40.5165 135.031 40.5372 134.903C40.619 134.395 40.7206 133.763 41.1704 133.106C41.4222 132.741 42.0881 131.914 42.7749 132.203C42.9603 132.278 43.0854 132.409 43.1723 132.547C43.1942 132.523 43.2165 132.499 43.2404 132.473C43.5371 132.16 43.7446 132.045 43.9446 131.935C44.0982 131.85 44.2568 131.762 44.5252 131.529C44.643 131.427 44.7373 131.335 44.8168 131.258C45.0578 131.024 45.366 130.75 45.7882 130.858C46.2358 130.991 46.3893 131.455 46.4911 131.762C46.6729 132.31 46.7289 132.687 46.766 132.936C46.7793 133.028 46.7948 133.131 46.8065 133.164C46.9045 133.432 48.1343 133.502 48.597 133.531C49.6371 133.592 50.5372 133.645 50.7536 134.419C50.9089 134.972 50.5852 135.576 49.7638 136.261C49.5079 136.474 49.2521 136.621 49.0293 136.731C49.1664 136.872 49.2756 137.063 49.2823 137.324C49.2973 137.941 48.7145 138.415 47.5501 138.734C47.2607 138.815 46.8715 138.921 46.3622 138.894C46.1223 138.881 45.9122 138.841 45.7331 138.804C45.7063 138.915 45.6574 139.03 45.5691 139.139C45.3099 139.462 44.8914 139.544 44.3232 139.362C43.696 139.172 43.2005 138.914 42.7632 138.687C42.3812 138.489 42.0519 138.32 41.7756 138.274C41.2616 138.196 40.7823 138.541 40.2087 138.999L38.7715 140.171Z" fill="#6C63FF"/>
<path d="M31.4316 187.538L31.0314 187.109L30.4751 187.045C30.4778 186.988 30.4741 186.855 30.4701 186.647C30.4487 185.51 30.3822 182.049 30.8259 176.731C31.1356 173.019 31.6533 169.25 32.3644 165.529C33.0767 161.801 33.816 159.028 34.4098 156.799C34.8579 155.118 35.3102 153.523 35.7517 151.97C36.93 147.82 38.0426 143.9 38.7315 139.429C38.8858 138.431 39.206 136.353 38.5505 133.9C38.1701 132.478 37.5188 131.139 36.6141 129.923L37.4897 129.154C38.4881 130.499 39.2083 131.982 39.6307 133.561C40.3576 136.28 40.0087 138.544 39.8411 139.632C39.1398 144.182 38.0162 148.14 36.8263 152.329C36.387 153.877 35.9362 155.465 35.49 157.139C34.9016 159.347 34.169 162.097 33.4659 165.776C32.7628 169.453 32.2518 173.175 31.9455 176.841C31.5077 182.092 31.5735 185.502 31.595 186.622C31.6061 187.22 31.6085 187.345 31.4316 187.538Z" fill="#6C63FF"/>
<path d="M34.2117 131.33C34.1667 131.319 34.1214 131.306 34.076 131.292C33.1525 131.011 32.4117 130.193 31.8736 128.862C31.6217 128.236 31.5623 127.577 31.4437 126.264C31.4251 126.061 31.3429 125.036 31.4439 123.678C31.5097 122.791 31.5975 122.434 31.8198 122.154C32.0667 121.842 32.3993 121.664 32.7508 121.574C32.7603 121.457 32.7957 121.342 32.8659 121.233C33.155 120.781 33.6391 120.967 33.9017 121.063C34.034 121.115 34.1989 121.181 34.3843 121.215C34.6758 121.269 34.8498 121.214 35.1133 121.131C35.3654 121.051 35.6788 120.952 36.112 120.961C36.9669 120.974 37.5997 121.391 37.8083 121.528C38.9073 122.246 39.2868 123.39 39.7259 124.716C39.8131 124.981 40.1027 125.941 40.1701 127.178C40.2188 128.07 40.1112 128.435 39.9878 128.696C39.7359 129.233 39.35 129.482 38.3924 130.005C37.3919 130.554 36.8899 130.828 36.4783 130.969C35.5206 131.296 34.9192 131.501 34.2117 131.33Z" fill="#6C63FF"/>
<path d="M291.036 27.8525C291.036 27.8525 297.249 31.811 295.211 35.7257C293.173 39.6403 290.333 44.9726 292.26 46.6519C294.187 48.3312 297.369 55.7355 297.369 55.7355C297.369 55.7355 310.949 53.6748 309.674 65.1354C308.399 76.596 302.019 78.1585 307.488 83.2003C312.956 88.2421 301.804 94.272 301.804 94.272C301.804 94.272 294.106 91.6657 292.35 83.6508C290.593 75.636 293.915 89.7792 292.801 90.7933C291.687 91.8074 287.361 98.4918 284.3 89.6045C281.239 80.7173 284.27 77.2715 280.225 72.0264C276.18 66.7812 273.43 58.2975 273.551 56.8145C273.671 55.3315 268.924 41.7989 276.231 36.5213C283.538 31.2437 291.036 27.8525 291.036 27.8525Z" fill="#2F2E41"/>
<path d="M352.233 152.201C355.84 155.444 360.305 156.051 362.204 153.557C364.104 151.062 362.719 146.412 359.11 143.168C357.685 141.85 355.99 140.923 354.167 140.463L338.724 126.931L333.033 134.94L348.862 147.43C349.619 149.29 350.775 150.926 352.233 152.201Z" fill="#FFB6B6"/>
<path d="M305.947 78.3971C305.947 78.3971 293.828 69.5915 289.859 73.9093C285.89 78.2271 286.838 89.0118 286.838 89.0118L318.62 129.253L343.823 146.657L350.58 135.16L329.393 114.62L305.947 78.3971Z" fill="#3F3D56"/>
<path d="M288.182 59.323L292.58 76.3039H268.444L276.392 55.3809L288.182 59.323Z" fill="#FFB6B6"/>
<path opacity="0.1" d="M288.182 59.323L292.58 76.3039H268.444L276.392 55.3809L288.182 59.323Z" fill="black"/>
<path d="M235.547 184.699C235.236 189.775 237.394 194.063 240.367 194.278C243.341 194.493 246.003 190.553 246.314 185.475C246.464 183.449 246.165 181.413 245.442 179.538L246.512 158.014L237.204 157.684L237.137 178.938C236.191 180.693 235.646 182.668 235.547 184.699Z" fill="#FFB6B6"/>
<path d="M263.575 100.744C263.575 100.744 263.06 84.9142 257.515 83.9424C251.97 82.9707 244.473 90.1139 244.473 90.1139L233.02 141.658L234.767 174.045L247.303 173.276L250.245 142.591L263.575 100.744Z" fill="#3F3D56"/>
<path d="M317.336 289.918C317.336 289.918 326.456 308.32 325.805 307.612C325.153 306.904 314.078 311.151 314.078 311.151L307.563 292.749L317.336 289.918Z" fill="#FFB6B6"/>
<path d="M330.797 161.106C330.797 161.106 335.466 181.382 334.995 180.522C334.524 179.661 322.828 180.814 322.828 180.814L320.685 161.236L330.797 161.106Z" fill="#FFB6B6"/>
<path d="M294.534 70.6416H271.763L246.976 89.0436L239.81 153.451L243.719 166.191L250.885 181.054C250.885 181.054 243.719 148.496 261.309 161.236C278.899 173.976 280.202 176.099 280.202 176.099L303.655 163.36L312.45 110.631L305.935 81.6121L294.534 70.6416Z" fill="#3F3D56"/>
<path d="M249.582 157.697C270.194 160.843 288.811 158.1 303.98 145.179C303.98 145.179 315.055 185.522 294.86 189.768C274.664 194.015 252.188 186.716 249.582 179.638C246.976 172.561 249.582 157.697 249.582 157.697Z" fill="#2F2E41"/>
<path d="M288.019 170.438L310.495 227.988L320.919 294.519L307.238 298.057L282.766 236.835L249.582 178.223L288.019 170.438Z" fill="#2F2E41"/>
<path d="M290.951 154.026C290.951 154.026 296.162 110.144 305.935 107.313C310.699 105.932 315.153 106.066 318.467 106.566C321.808 107.069 324.471 109.842 325.055 113.451L333.935 168.314H321.378L317.335 153.45L306.586 173.843L290.951 154.026Z" fill="#2F2E41"/>
<path d="M322.873 175.259L335.289 173.844L337.205 181.629C337.205 181.629 357.401 201.447 346.978 202.862C336.554 204.278 326.782 196.492 326.782 196.492L312.443 187.556C312.443 187.556 317.987 171.499 321.896 171.499C325.805 171.499 322.873 175.259 322.873 175.259Z" fill="#2F2E41"/>
<path d="M316.358 307.966L328.775 306.55L330.691 314.336C330.691 314.336 350.886 334.153 340.463 335.569C330.039 336.984 320.267 329.199 320.267 329.199L305.928 320.263C305.928 320.263 306.912 303.498 310.821 303.498C314.73 303.498 316.358 307.966 316.358 307.966Z" fill="#2F2E41"/>
<path d="M282.448 63.0133C290.475 63.0133 296.983 55.9435 296.983 47.2224C296.983 38.5014 290.475 31.4316 282.448 31.4316C274.421 31.4316 267.913 38.5014 267.913 47.2224C267.913 55.9435 274.421 63.0133 282.448 63.0133Z" fill="#FFB6B6"/>
<path d="M288.02 29.5889C288.02 29.5889 290.442 36.958 286.566 38.537C282.69 40.1161 277.361 42.2216 277.845 44.8534C278.33 47.4852 276.392 55.3806 276.392 55.3806C276.392 55.3806 288.02 63.276 280.268 71.1714C272.516 79.0668 266.702 75.8133 267.913 83.4932C269.124 91.1731 257.012 88.0149 257.012 88.0149C257.012 88.0149 252.652 80.6459 256.043 73.2768C259.434 65.9078 253.621 79.0668 252.167 79.0668C250.714 79.0668 243.446 81.1722 246.353 72.2241C249.26 63.276 253.621 62.7496 253.621 55.9069C253.621 49.0642 256.528 40.6425 257.497 39.5898C258.466 38.537 262.826 24.8517 271.547 25.9044C280.268 26.9571 288.02 29.5889 288.02 29.5889Z" fill="#2F2E41"/>
<path d="M160.981 289.918C160.981 289.918 151.861 308.32 152.512 307.612C153.164 306.904 164.239 311.151 164.239 311.151L170.754 292.749L160.981 289.918Z" fill="#A0616A"/>
<path d="M228.735 157.697C208.123 160.843 189.506 158.1 174.336 145.179C174.336 145.179 163.261 185.522 183.457 189.768C203.653 194.015 226.129 186.716 228.735 179.638C231.341 172.561 228.735 157.697 228.735 157.697Z" fill="#2F2E41"/>
<path d="M190.298 170.438L167.822 227.988L157.398 294.519L171.079 298.057L195.551 236.835L228.735 178.223L190.298 170.438Z" fill="#2F2E41"/>
<path d="M161.959 307.966L149.542 306.55L147.626 314.336C147.626 314.336 127.431 334.153 137.854 335.569C148.278 336.984 158.05 329.199 158.05 329.199L172.389 320.263C172.389 320.263 171.405 303.498 167.496 303.498C163.587 303.498 161.959 307.966 161.959 307.966Z" fill="#2F2E41"/>
<path d="M181.576 280.237C181.576 280.237 178.125 300.798 178.544 299.906C178.963 299.015 190.704 299.342 190.704 299.342L191.675 279.654L181.576 280.237Z" fill="#A0616A"/>
<path d="M175.534 156.757L170.497 219.034L179.474 285.813L193.492 284.594L199.385 218.156L214.307 151.28L175.534 156.757Z" fill="#2F2E41"/>
<path d="M187.63 297.076L175.417 299.892L175.806 307.939C175.806 307.939 162.223 333.559 172.54 331.412C182.857 329.265 189.942 318.584 189.942 318.584L201.043 305.278C201.043 305.278 195.347 289.661 191.629 290.971C187.911 292.281 187.63 297.076 187.63 297.076Z" fill="#2F2E41"/>
<path d="M187.281 27.8525C187.281 27.8525 181.068 31.811 183.106 35.7257C185.144 39.6403 187.984 44.9726 186.057 46.6519C184.13 48.3312 180.948 55.7355 180.948 55.7355C180.948 55.7355 167.368 53.6748 168.643 65.1354C169.918 76.596 176.298 78.1585 170.83 83.2003C165.361 88.2421 176.513 94.272 176.513 94.272C176.513 94.272 184.211 91.6657 185.968 83.6508C187.724 75.636 184.402 89.7792 185.516 90.7933C186.63 91.8074 190.956 98.4918 194.017 89.6045C197.079 80.7173 194.047 77.2715 198.092 72.0264C202.137 66.7812 204.887 58.2975 204.767 56.8145C204.646 55.3315 209.393 41.7989 202.086 36.5213C194.779 31.2437 187.281 27.8525 187.281 27.8525Z" fill="#2F2E41"/>
<path d="M190.135 59.323L185.737 76.3039H209.873L201.925 55.3809L190.135 59.323Z" fill="#A0616A"/>
<path opacity="0.1" d="M190.135 59.323L185.737 76.3039H209.873L201.925 55.3809L190.135 59.323Z" fill="black"/>
<path d="M242.77 184.699C243.081 189.775 240.923 194.063 237.95 194.278C234.976 194.493 232.314 190.553 232.003 185.475C231.853 183.449 232.152 181.413 232.875 179.538L231.805 158.014L241.113 157.684L241.18 178.938C242.126 180.693 242.671 182.668 242.77 184.699Z" fill="#A0616A"/>
<path d="M214.742 100.744C214.742 100.744 215.257 84.9142 220.802 83.9424C226.347 82.9707 233.844 90.1139 233.844 90.1139L245.298 141.658L243.55 174.045L231.015 173.276L228.073 142.591L214.742 100.744Z" fill="#6C63FF"/>
<path d="M183.783 70.6416H206.554L231.341 89.0437L238.507 153.451L234.598 166.191L227.432 181.054C227.432 181.054 234.598 148.496 217.008 161.236C216.832 161.364 216.658 161.49 216.485 161.615C205.162 169.832 190.222 168.988 179.741 159.545L171.405 152.035L175.965 127.263L172.382 81.6121L183.783 70.6416Z" fill="#6C63FF"/>
<path d="M126.804 151.277C123.152 154.461 118.68 154.994 116.815 152.468C114.951 149.943 116.4 145.316 120.054 142.132C121.498 140.838 123.205 139.939 125.034 139.509L140.666 126.233L146.244 134.335L130.242 146.563C129.459 148.41 128.28 150.027 126.804 151.277Z" fill="#A0616A"/>
<path d="M174.117 78.2471C174.117 78.2471 186.358 69.6426 190.266 74.0254C194.174 78.4082 193.076 89.176 193.076 89.176L160.734 128.888L135.291 145.873L128.695 134.267L150.168 114.079L174.117 78.2471Z" fill="#6C63FF"/>
<path d="M195.869 63.0133C203.897 63.0133 210.404 55.9435 210.404 47.2224C210.404 38.5014 203.897 31.4316 195.869 31.4316C187.842 31.4316 181.334 38.5014 181.334 47.2224C181.334 55.9435 187.842 63.0133 195.869 63.0133Z" fill="#A0616A"/>
<path d="M188.633 36.6374C188.633 36.6374 186.492 28.8828 190.061 28.8828C193.63 28.8828 207.905 29.6583 209.333 31.2092C210.76 32.7601 227.652 48.3253 217.66 60.7325C207.667 73.1398 217.66 79.1346 217.66 79.1346C217.66 79.1346 225.036 97.8981 217.898 99.449C210.76 101 181.482 92.1318 188.633 77.7363C196.394 62.1142 200.005 37.4571 188.633 36.6374Z" fill="#2F2E41"/>
<path d="M426.474 151.919C426.243 151.152 424.494 151.49 424.326 150.804C424.159 150.12 425.837 149.547 427.124 147.62C427.356 147.273 428.819 145.083 428.258 144.163C427.195 142.417 419.796 146.764 418.021 144.325C417.631 143.789 417.47 142.87 416.309 141.16C415.848 140.479 415.551 140.151 415.197 140.16C414.695 140.174 414.515 140.857 413.726 142.094C412.541 143.949 412.114 143.716 411.334 145.236C410.755 146.364 410.686 147.085 410.269 147.127C409.678 147.187 409.434 145.783 408.712 145.728C407.975 145.672 407.237 147.06 406.872 148.145C406.186 150.18 406.611 151.735 406.705 153.285C406.807 154.97 406.567 157.436 404.882 160.601L388.992 188.106C392.404 182.499 402.092 167.208 405.995 161.6C407.121 159.981 408.332 158.355 410.196 158.049C411.99 157.755 414.173 158.719 417.22 158.663C417.576 158.656 418.566 158.624 418.807 158.054C419.006 157.583 418.512 157.173 418.692 156.73C418.933 156.135 420.019 156.39 421.498 155.995C422.541 155.717 423.25 155.257 423.86 154.861C424.044 154.742 426.781 152.941 426.474 151.919Z" fill="#6C63FF"/>
<path d="M384.853 158.341C384.44 158.243 384.088 159.273 383.73 159.165C383.373 159.057 383.598 157.996 383.099 156.754C383.009 156.53 382.442 155.119 381.864 155.152C380.769 155.215 380.598 160.414 378.983 160.657C378.629 160.711 378.168 160.531 377.06 160.657C376.619 160.707 376.385 160.77 376.287 160.961C376.149 161.233 376.405 161.526 376.736 162.304C377.233 163.471 377.004 163.631 377.466 164.486C377.808 165.12 378.114 165.365 378.013 165.599C377.869 165.932 377.164 165.657 376.931 166.026C376.694 166.403 377.108 167.197 377.492 167.704C378.214 168.657 379.039 168.879 379.767 169.276C380.557 169.708 381.602 170.548 382.545 172.359L390.387 188.768C388.838 185.331 384.726 175.754 383.318 172.054C382.912 170.986 382.526 169.872 382.926 168.79C383.311 167.748 384.376 166.862 385.23 165.221C385.33 165.03 385.601 164.492 385.413 164.199C385.257 163.957 384.93 164.102 384.781 163.879C384.582 163.578 385.011 163.073 385.259 162.17C385.435 161.534 385.431 161.023 385.428 160.584C385.427 160.452 385.403 158.472 384.853 158.341Z" fill="#6C63FF"/>
<path d="M392.676 162.345L392.923 159.872L393.074 159.717C393.773 158.999 394.211 158.238 394.375 157.455C394.401 157.331 394.421 157.205 394.442 157.077C394.524 156.568 394.625 155.936 395.075 155.28C395.327 154.915 395.993 154.088 396.68 154.377C396.865 154.452 396.99 154.583 397.077 154.721C397.099 154.697 397.121 154.673 397.145 154.647C397.442 154.334 397.649 154.219 397.849 154.109C398.003 154.024 398.162 153.936 398.43 153.703C398.548 153.601 398.642 153.509 398.722 153.431C398.963 153.198 399.271 152.924 399.693 153.032C400.141 153.165 400.294 153.629 400.396 153.936C400.578 154.484 400.634 154.861 400.671 155.11C400.684 155.202 400.7 155.304 400.711 155.338C400.809 155.606 402.039 155.675 402.502 155.704C403.542 155.766 404.442 155.819 404.658 156.592C404.814 157.146 404.49 157.75 403.669 158.435C403.413 158.648 403.157 158.795 402.934 158.905C403.071 159.045 403.18 159.237 403.187 159.498C403.202 160.115 402.619 160.589 401.455 160.908C401.165 160.988 400.776 161.095 400.267 161.068C400.027 161.055 399.817 161.015 399.638 160.978C399.611 161.089 399.562 161.204 399.474 161.313C399.215 161.636 398.796 161.717 398.228 161.536C397.601 161.346 397.105 161.088 396.668 160.861C396.286 160.663 395.957 160.494 395.68 160.448C395.166 160.37 394.687 160.714 394.114 161.173L392.676 162.345Z" fill="#6C63FF"/>
<path d="M396.778 148.264L394.515 148.632L394.338 148.512C393.521 147.959 392.733 147.693 391.994 147.719C391.877 147.723 391.759 147.733 391.64 147.744C391.167 147.787 390.578 147.841 389.88 147.534C389.49 147.363 388.586 146.872 388.668 146.077C388.689 145.864 388.773 145.699 388.874 145.572C388.847 145.556 388.82 145.538 388.791 145.52C388.437 145.287 388.282 145.098 388.133 144.916C388.018 144.776 387.9 144.632 387.625 144.409C387.504 144.311 387.398 144.235 387.309 144.172C387.039 143.978 386.718 143.723 386.707 143.252C386.712 142.748 387.086 142.469 387.333 142.284C387.775 141.954 388.096 141.8 388.309 141.697C388.387 141.66 388.475 141.618 388.501 141.597C388.715 141.426 388.465 140.116 388.374 139.622C388.164 138.514 387.983 137.555 388.617 137.131C389.071 136.827 389.691 137.014 390.509 137.704C390.763 137.919 390.959 138.15 391.113 138.356C391.204 138.177 391.347 138.013 391.577 137.94C392.123 137.768 392.693 138.26 393.273 139.403C393.417 139.686 393.611 140.069 393.716 140.611C393.765 140.866 393.783 141.097 393.795 141.295C393.901 141.294 394.016 141.317 394.136 141.382C394.488 141.572 394.668 141.991 394.65 142.635C394.64 143.342 394.536 143.928 394.444 144.445C394.365 144.897 394.298 145.286 394.327 145.588C394.388 146.148 394.817 146.564 395.371 147.05L396.778 148.264Z" fill="#6C63FF"/>
<path d="M397.083 140.879L397.329 138.407L397.481 138.251C398.18 137.533 398.618 136.772 398.782 135.989C398.808 135.865 398.828 135.739 398.849 135.611C398.931 135.103 399.032 134.471 399.482 133.814C399.734 133.449 400.4 132.622 401.086 132.911C401.272 132.986 401.397 133.117 401.484 133.255C401.506 133.231 401.528 133.207 401.552 133.181C401.849 132.868 402.056 132.753 402.256 132.643C402.41 132.558 402.568 132.47 402.837 132.237C402.955 132.135 403.049 132.043 403.128 131.966C403.369 131.732 403.678 131.458 404.1 131.566C404.547 131.699 404.701 132.163 404.803 132.47C404.984 133.018 405.04 133.395 405.078 133.645C405.091 133.736 405.106 133.839 405.118 133.872C405.216 134.14 406.446 134.21 406.909 134.239C407.949 134.3 408.849 134.353 409.065 135.127C409.22 135.68 408.897 136.284 408.075 136.969C407.819 137.182 407.564 137.329 407.341 137.439C407.478 137.58 407.587 137.771 407.594 138.032C407.609 138.649 407.026 139.123 405.862 139.442C405.572 139.523 405.183 139.629 404.674 139.602C404.434 139.589 404.224 139.549 404.045 139.512C404.018 139.623 403.969 139.738 403.881 139.847C403.621 140.17 403.203 140.252 402.635 140.07C402.008 139.88 401.512 139.622 401.075 139.395C400.693 139.197 400.363 139.028 400.087 138.982C399.573 138.904 399.094 139.249 398.52 139.708L397.083 140.879Z" fill="#6C63FF"/>
<path d="M389.743 188.246L389.343 187.817L388.787 187.753C388.789 187.696 388.786 187.563 388.782 187.356C388.76 186.218 388.694 182.757 389.137 177.439C389.447 173.727 389.965 169.958 390.676 166.237C391.388 162.509 392.128 159.736 392.721 157.507C393.169 155.826 393.622 154.231 394.063 152.678C395.242 148.528 396.354 144.608 397.043 140.137C397.197 139.139 397.518 137.061 396.862 134.608C396.482 133.186 395.83 131.847 394.926 130.631L395.801 129.862C396.8 131.207 397.52 132.69 397.942 134.269C398.669 136.988 398.32 139.252 398.153 140.34C397.451 144.89 396.328 148.848 395.138 153.037C394.699 154.585 394.248 156.173 393.802 157.847C393.213 160.055 392.48 162.805 391.777 166.484C391.074 170.161 390.563 173.883 390.257 177.549C389.819 182.8 389.885 186.21 389.907 187.33C389.918 187.928 389.92 188.053 389.743 188.246Z" fill="#6C63FF"/>
<path d="M392.523 132.038C392.478 132.027 392.433 132.015 392.388 132C391.464 131.719 390.723 130.901 390.185 129.57C389.933 128.944 389.874 128.285 389.755 126.972C389.737 126.769 389.654 125.744 389.755 124.386C389.821 123.499 389.909 123.142 390.131 122.862C390.378 122.551 390.711 122.372 391.062 122.282C391.072 122.165 391.107 122.05 391.177 121.941C391.467 121.489 391.951 121.675 392.213 121.771C392.346 121.823 392.51 121.889 392.696 121.923C392.987 121.977 393.161 121.922 393.425 121.839C393.677 121.759 393.99 121.66 394.424 121.669C395.278 121.682 395.911 122.099 396.12 122.236C397.219 122.954 397.598 124.098 398.037 125.424C398.125 125.689 398.414 126.649 398.482 127.886C398.53 128.778 398.423 129.143 398.299 129.404C398.047 129.941 397.662 130.19 396.704 130.713C395.703 131.262 395.201 131.536 394.79 131.677C393.832 132.004 393.231 132.209 392.523 132.038Z" fill="#6C63FF"/>
<path d="M108.9 145.447L108.165 120.255C108.153 119.846 108.301 119.448 108.571 119.163C108.841 118.878 109.212 118.728 109.588 118.753L127.988 119.952C128.36 119.976 128.709 120.169 128.945 120.481C129.182 120.794 129.289 121.202 129.239 121.603L126.126 146.642C126.032 147.399 125.409 147.953 124.707 147.902L110.154 146.857C110.006 146.846 109.866 146.81 109.736 146.753C109.255 146.542 108.918 146.04 108.9 145.447Z" fill="#6C63FF"/>
<path d="M108.188 117.899C108.446 117.87 108.79 117.833 109.204 117.796C109.094 117.572 109.048 117.307 109.096 117.035L109.424 115.148C109.51 114.658 109.873 114.283 110.328 114.217C113.037 113.823 122.356 112.756 128.223 115.648C128.59 115.829 128.827 116.226 128.838 116.664L128.892 118.677C128.899 118.926 128.832 119.156 128.715 119.348C129.203 119.49 129.689 119.641 130.172 119.805C130.474 119.908 130.69 120.198 130.727 120.54L130.818 121.397C130.876 121.941 130.465 122.409 129.962 122.372L107.964 120.758C107.464 120.722 107.115 120.203 107.235 119.673L107.489 118.56C107.57 118.202 107.85 117.938 108.188 117.899Z" fill="#3F3D56"/>
<path d="M53.5248 73.9625L52.7897 48.771C52.7778 48.3621 52.9257 47.964 53.1957 47.6787C53.4659 47.3934 53.8365 47.2437 54.2126 47.2682L72.613 48.4672C72.9847 48.4912 73.3335 48.6843 73.5699 48.9968C73.8065 49.3091 73.9135 49.7181 73.8637 50.1189L70.7509 75.1572C70.6568 75.9148 70.0331 76.4685 69.3312 76.4179L54.7786 75.3724C54.631 75.3617 54.4904 75.326 54.3602 75.2688C53.8796 75.0576 53.5421 74.5557 53.5248 73.9625Z" fill="#6C63FF"/>
<path d="M52.8127 46.4146C53.0701 46.3851 53.4149 46.3489 53.8289 46.3112C53.7182 46.0873 53.673 45.8225 53.7203 45.5508L54.0489 43.6638C54.1342 43.1741 54.4973 42.7986 54.9521 42.7326C57.6614 42.339 66.9801 41.2711 72.8479 44.1633C73.215 44.3443 73.4512 44.7416 73.4628 45.1793L73.5165 47.1924C73.5232 47.4414 73.4566 47.6721 73.3399 47.8633C73.8277 48.0058 74.3139 48.1565 74.7963 48.3208C75.0985 48.4238 75.3149 48.7136 75.3512 49.0555L75.4424 49.9129C75.5002 50.4571 75.0896 50.9249 74.5866 50.8879L52.5886 49.274C52.088 49.2372 51.7394 48.7182 51.8599 48.1891L52.1133 47.0759C52.195 46.7172 52.4745 46.4533 52.8127 46.4146Z" fill="#3F3D56"/>
<path d="M342.129 151.817L341.394 126.625C341.382 126.217 341.53 125.818 341.8 125.533C342.07 125.248 342.44 125.098 342.817 125.123L361.217 126.322C361.589 126.346 361.938 126.539 362.174 126.851C362.41 127.164 362.518 127.573 362.468 127.973L359.355 153.012C359.261 153.769 358.637 154.323 357.935 154.272L343.383 153.227C343.235 153.216 343.094 153.181 342.964 153.123C342.484 152.912 342.146 152.41 342.129 151.817Z" fill="#6C63FF"/>
<path d="M341.417 124.269C341.674 124.24 342.019 124.203 342.433 124.166C342.322 123.942 342.277 123.677 342.324 123.405L342.653 121.518C342.738 121.029 343.101 120.653 343.556 120.587C346.265 120.193 355.584 119.126 361.452 122.018C361.819 122.199 362.055 122.596 362.067 123.034L362.121 125.047C362.127 125.296 362.061 125.527 361.944 125.718C362.432 125.86 362.918 126.011 363.4 126.175C363.703 126.278 363.919 126.568 363.955 126.91L364.046 127.767C364.104 128.312 363.694 128.779 363.191 128.742L341.193 127.128C340.692 127.092 340.343 126.573 340.464 126.044L340.717 124.93C340.799 124.572 341.078 124.308 341.417 124.269Z" fill="#3F3D56"/>
</g>
<defs>
<clipPath id="clip0_4068_8759">
<rect width="430" height="338" fill="white" transform="translate(0 0.572266)"/>
</clipPath>
</defs>
</svg>
