<svg width="392" height="344" viewBox="0 0 392 344" fill="none" xmlns="http://www.w3.org/2000/svg">
<path d="M213.935 331.74C213.619 331.754 213.306 331.672 213.038 331.504C212.77 331.337 212.561 331.092 212.439 330.803C212.317 330.514 212.287 330.195 212.355 329.888C212.422 329.582 212.583 329.304 212.816 329.091L212.921 328.675C212.908 328.642 212.893 328.609 212.879 328.575C212.561 327.831 212.026 327.196 211.344 326.75C210.661 326.305 209.861 326.069 209.043 326.072C208.225 326.075 207.427 326.317 206.747 326.767C206.068 327.218 205.539 327.856 205.226 328.603C203.974 331.585 202.38 334.571 201.988 337.724C201.815 339.117 201.888 340.53 202.203 341.898C199.263 335.556 197.736 328.663 197.726 321.686C197.726 319.935 197.824 318.186 198.021 316.446C198.184 315.02 198.409 313.603 198.698 312.197C200.274 304.568 203.658 297.418 208.571 291.333C210.949 290.05 212.872 288.077 214.081 285.68C214.519 284.818 214.828 283.898 215 282.949C214.732 282.983 213.989 278.943 214.191 278.696C213.817 278.135 213.148 277.856 212.74 277.308C210.709 274.586 207.912 275.061 206.451 278.761C203.331 280.318 203.301 282.9 205.215 285.384C206.433 286.964 206.601 289.102 207.669 290.793C207.559 290.933 207.445 291.067 207.335 291.207C205.325 293.762 203.574 296.506 202.105 299.399C202.462 296.158 202.036 292.879 200.862 289.832C199.672 286.993 197.441 284.602 195.476 282.147C193.116 279.199 188.277 280.485 187.861 284.223C187.857 284.259 187.853 284.295 187.849 284.331C188.141 284.494 188.427 284.667 188.706 284.85C189.057 285.082 189.329 285.413 189.487 285.801C189.644 286.188 189.68 286.614 189.588 287.021C189.497 287.429 189.283 287.8 188.975 288.085C188.667 288.371 188.279 288.558 187.861 288.621L187.819 288.628C187.923 289.668 188.106 290.699 188.368 291.711C185.848 301.35 191.289 304.86 199.059 305.018C199.23 305.105 199.397 305.192 199.569 305.274C198.094 309.409 197.168 313.715 196.816 318.085C196.617 320.664 196.628 323.254 196.851 325.83L196.838 325.739C196.275 322.874 194.73 320.289 192.462 318.42C189.095 315.685 184.338 314.678 180.705 312.479C180.319 312.234 179.87 312.103 179.411 312.102C178.953 312.101 178.503 312.229 178.116 312.473C177.728 312.716 177.42 313.064 177.226 313.475C177.032 313.886 176.961 314.343 177.021 314.793C177.026 314.825 177.031 314.857 177.036 314.889C177.577 315.107 178.105 315.358 178.614 315.641C178.906 315.804 179.192 315.977 179.471 316.16C179.822 316.392 180.095 316.723 180.252 317.111C180.409 317.498 180.445 317.924 180.353 318.331C180.262 318.739 180.048 319.11 179.74 319.395C179.432 319.681 179.044 319.868 178.626 319.931L178.584 319.938C178.553 319.942 178.526 319.946 178.496 319.951C179.421 322.135 180.72 324.146 182.335 325.895C183.911 334.309 190.679 335.108 197.92 332.657H197.924C198.719 336.071 199.87 339.394 201.359 342.572H213.628C213.672 342.437 213.712 342.298 213.751 342.163C212.615 342.234 211.475 342.167 210.356 341.963C211.266 340.859 212.177 339.746 213.087 338.641C213.107 338.62 213.126 338.599 213.144 338.576C213.606 338.011 214.072 337.45 214.534 336.884L214.534 336.884C214.559 335.151 214.357 333.422 213.935 331.74Z" fill="#6C63FF"/>
<path d="M195.5 139.572C181.754 139.572 168.317 135.496 156.888 127.859C145.459 120.223 136.551 109.368 131.29 96.6688C126.03 83.9693 124.654 69.9952 127.335 56.5135C130.017 43.0318 136.636 30.6481 146.356 20.9284C156.076 11.2086 168.46 4.58939 181.941 1.90772C195.423 -0.773952 209.397 0.602378 222.096 5.86267C234.796 11.123 245.65 20.0309 253.287 31.4602C260.924 42.8894 265 56.3265 265 70.0723C264.979 88.4984 257.65 106.164 244.621 119.193C231.592 132.222 213.926 139.551 195.5 139.572ZM195.5 1.66679C181.971 1.66679 168.745 5.6787 157.496 13.1952C146.247 20.7117 137.479 31.3952 132.302 43.8946C127.124 56.3941 125.769 70.1482 128.409 83.4175C131.048 96.6869 137.563 108.876 147.13 118.442C156.697 128.009 168.885 134.524 182.155 137.163C195.424 139.803 209.178 138.448 221.678 133.271C234.177 128.093 244.861 119.326 252.377 108.076C259.894 96.8271 263.906 83.6016 263.906 70.0723C263.885 51.9363 256.671 34.549 243.847 21.7249C231.023 8.90085 213.636 1.68728 195.5 1.66679Z" fill="#6C63FF"/>
<path d="M203.297 94.5723H188.703C187.986 94.5723 187.298 94.3089 186.792 93.84C186.285 93.3712 186 92.7353 186 92.0723C186 91.4092 186.285 90.7733 186.792 90.3045C187.298 89.8357 187.986 89.5723 188.703 89.5723H203.297C204.014 89.5723 204.702 89.8357 205.208 90.3045C205.715 90.7733 206 91.4092 206 92.0723C206 92.7353 205.715 93.3712 205.208 93.84C204.702 94.3089 204.014 94.5723 203.297 94.5723Z" fill="#E6E6E6"/>
<path d="M206.081 174.572H184.919C183.88 174.572 182.883 174.151 182.148 173.401C181.413 172.651 181 171.633 181 170.572C181 169.511 181.413 168.494 182.148 167.744C182.883 166.994 183.88 166.572 184.919 166.572H206.081C207.12 166.572 208.117 166.994 208.852 167.744C209.587 168.494 210 169.511 210 170.572C210 171.633 209.587 172.651 208.852 173.401C208.117 174.151 207.12 174.572 206.081 174.572Z" fill="#6C63FF"/>
<path d="M267.182 157.572H123.818C122.541 157.571 121.316 157.057 120.413 156.143C119.51 155.229 119.001 153.989 119 152.697V109.448C119.001 108.155 119.51 106.916 120.413 106.002C121.316 105.088 122.541 104.574 123.818 104.572H267.182C268.459 104.574 269.684 105.088 270.587 106.002C271.49 106.916 271.999 108.155 272 109.448V152.697C271.999 153.989 271.49 155.229 270.587 156.143C269.684 157.057 268.459 157.571 267.182 157.572Z" fill="#E6E6E6"/>
<path d="M253.449 154.572H126.835C125.553 154.571 124.324 154.061 123.418 153.156C122.511 152.25 122.001 151.022 122 149.741V113.404C122.001 112.123 122.511 110.895 123.418 109.989C124.324 109.083 125.553 108.574 126.835 108.572H264.165C265.447 108.574 266.676 109.083 267.582 109.989C268.489 110.895 268.999 112.123 269 113.404V139.032C268.995 143.152 267.355 147.102 264.44 150.016C261.525 152.929 257.572 154.568 253.449 154.572Z" fill="white"/>
<path d="M209.76 121.572H152.24C151.911 121.572 151.596 121.414 151.363 121.133C151.131 120.852 151 120.47 151 120.072C151 119.674 151.131 119.293 151.363 119.012C151.596 118.73 151.911 118.572 152.24 118.572H209.76C210.089 118.572 210.404 118.73 210.637 119.012C210.869 119.293 211 119.674 211 120.072C211 120.47 210.869 120.852 210.637 121.133C210.404 121.414 210.089 121.572 209.76 121.572Z" fill="#6C63FF"/>
<path d="M238.761 126.572H152.239C151.91 126.572 151.595 126.414 151.363 126.133C151.131 125.852 151 125.47 151 125.072C151 124.674 151.131 124.293 151.363 124.012C151.595 123.73 151.91 123.572 152.239 123.572H238.761C239.09 123.572 239.405 123.73 239.637 124.012C239.869 124.293 240 124.674 240 125.072C240 125.47 239.869 125.852 239.637 126.133C239.405 126.414 239.09 126.572 238.761 126.572Z" fill="#E6E6E6"/>
<path d="M238.764 131.572H152.241C152.078 131.573 151.917 131.547 151.767 131.497C151.616 131.447 151.479 131.373 151.364 131.28C151.248 131.187 151.157 131.077 151.095 130.955C151.032 130.834 151 130.704 151 130.572C151 130.441 151.032 130.311 151.095 130.189C151.157 130.068 151.248 129.957 151.364 129.864C151.479 129.772 151.616 129.698 151.767 129.648C151.917 129.598 152.078 129.572 152.241 129.572H238.764C239.092 129.573 239.406 129.678 239.638 129.866C239.87 130.053 240 130.307 240 130.572C240 130.837 239.87 131.091 239.638 131.279C239.406 131.466 239.092 131.572 238.764 131.572Z" fill="#E6E6E6"/>
<path d="M238.764 137.572H152.241C152.078 137.573 151.917 137.547 151.767 137.497C151.616 137.447 151.479 137.373 151.364 137.28C151.248 137.187 151.157 137.077 151.095 136.955C151.032 136.834 151 136.704 151 136.572C151 136.441 151.032 136.311 151.095 136.189C151.157 136.068 151.248 135.957 151.364 135.864C151.479 135.772 151.616 135.698 151.767 135.648C151.917 135.598 152.078 135.572 152.241 135.572H238.764C239.092 135.573 239.406 135.678 239.638 135.866C239.87 136.053 240 136.307 240 136.572C240 136.837 239.87 137.091 239.638 137.279C239.406 137.466 239.092 137.572 238.764 137.572Z" fill="#E6E6E6"/>
<path d="M238.764 143.572H152.241C152.078 143.573 151.917 143.547 151.767 143.497C151.616 143.447 151.479 143.373 151.364 143.28C151.248 143.187 151.157 143.077 151.095 142.955C151.032 142.834 151 142.704 151 142.572C151 142.441 151.032 142.311 151.095 142.189C151.157 142.068 151.248 141.957 151.364 141.864C151.479 141.772 151.616 141.698 151.767 141.648C151.917 141.598 152.078 141.572 152.241 141.572H238.764C239.092 141.573 239.406 141.678 239.638 141.866C239.87 142.053 240 142.307 240 142.572C240 142.837 239.87 143.091 239.638 143.279C239.406 143.466 239.092 143.572 238.764 143.572Z" fill="#E6E6E6"/>
<path d="M315.998 336.572L309.901 336.572L307 313.572L316 313.573L315.998 336.572Z" fill="#A0616A"/>
<path d="M316 342.572L298 342.572V342.338C298 340.428 298.738 338.596 300.052 337.246C301.366 335.895 303.148 335.136 305.006 335.136L308.294 332.572L314.429 335.137L316 335.137L316 342.572Z" fill="#2F2E41"/>
<path d="M363 328.955L357.981 331.572L346 312.436L353.409 308.572L363 328.955Z" fill="#A0616A"/>
<path d="M366 334.29L349.831 342.572L349.73 342.361C348.903 340.635 348.773 338.641 349.369 336.816C349.964 334.991 351.236 333.486 352.905 332.631L354.749 328.801L361.369 328.295L362.781 327.572L366 334.29Z" fill="#2F2E41"/>
<path d="M298.603 215.41C298.603 215.41 291.93 224.67 296.747 240.669C301.564 256.667 298.86 270.97 300.212 273.838C301.564 276.706 304.286 279.43 302.037 281.605C299.788 283.779 298.603 285.547 300.38 286.137C302.156 286.726 308.078 327.983 308.078 327.983L318.145 328.572C318.145 328.572 321.792 309.407 317.896 293.941C317.896 293.941 318.751 282.713 316.967 279.415C315.184 276.117 315.534 279.092 315.655 274.952C315.722 271.958 316.16 268.984 316.96 266.097C317.553 263.74 317.896 239.979 317.896 239.979L327.695 271.51C328.089 272.597 328.236 273.756 328.128 274.906C327.885 276.53 327.883 278.957 328.18 279.806C328.477 280.656 328.808 280.834 328.643 282.513C328.477 284.192 348.201 319.582 348.201 319.582L358 313.039L348.345 282.011C347.386 280.953 346.588 279.762 345.976 278.475C344.792 276.117 344.746 275.987 345.361 274.284C345.976 272.581 345.976 269.262 345.976 268.269C345.976 267.276 346.592 222.19 338.882 215.558C331.172 208.927 298.603 215.41 298.603 215.41Z" fill="#2F2E41"/>
<path d="M334.201 143.946L332.197 138.246L326.727 132.777L316.637 131.572L310.069 135.89L303.985 141.886L295 216.455C295 216.455 337.439 232.814 343 219.085L334.201 143.946Z" fill="#CCCCCC"/>
<path d="M337.527 143.479L331.706 137.572C331.706 137.572 328.926 175.323 330.11 177.978C331.295 180.633 332.69 179.956 331.182 181.391C329.674 182.826 328.054 181.402 329.674 184.032C330.629 185.507 331.098 187.252 331.012 189.015C331.012 189.015 339.397 242.572 344.259 242.572C349.121 242.572 352.165 241.128 351.993 239.658C351.822 238.187 348.954 234.526 349.848 233.616C350.741 232.706 352.944 233.393 350.763 231.679C348.581 229.965 347.5 230.513 348.04 228.321C348.581 226.128 344.451 197.705 344.451 197.705L344.048 150.23L337.527 143.479Z" fill="#3F3D56"/>
<path d="M310 135.572L302.664 136.651L293.942 140.109C293.942 140.109 297.926 186.795 297.094 188.358C296.262 189.921 294.785 188.945 296.049 190.525C297.314 192.106 298.451 191.405 297.094 192.847C295.737 194.29 293.452 192.463 294.857 195.015C296.262 197.567 289.491 232.707 291.314 234.592C293.137 236.477 297.835 235.304 297.837 233.912C297.694 232.412 297.148 230.984 296.262 229.789C296.008 229.487 295.868 229.099 295.868 228.697C295.868 228.296 296.008 227.908 296.262 227.605C297.007 226.861 297.519 225.9 297.731 224.849C297.839 223.782 298.642 222.47 299.029 221.488C299.416 220.505 309.164 153.99 309.164 153.99L310 135.572Z" fill="#3F3D56"/>
<path d="M277.631 172.572L281 170.761C276.793 166.855 266.355 160.463 266.355 160.463L248.364 147.976C248.101 147.338 247.679 146.783 247.14 146.366C246.602 145.949 245.967 145.685 245.298 145.601C244.629 145.517 243.951 145.616 243.331 145.888C242.711 146.16 242.172 146.595 241.768 147.15C241.363 147.705 241.108 148.359 241.028 149.048C240.947 149.736 241.044 150.435 241.309 151.072C241.574 151.71 241.997 152.264 242.536 152.68C243.076 153.096 243.712 153.358 244.381 153.44L264.542 172.035L277.631 172.572Z" fill="#A0616A"/>
<path d="M302.963 158.894L303 143.628L294.668 139.572L273.654 162.209L272.026 161.104H268.227L259 172.153C259 172.153 263.914 175.117 266.342 173.911C268.77 172.705 268.541 174.438 268.541 174.438C268.902 174.899 269.404 175.223 269.967 175.358C270.53 175.493 271.121 175.431 271.646 175.181C273.654 174.363 277.454 176.572 277.454 176.572L302.963 158.894Z" fill="#3F3D56"/>
<path d="M323 127.572C329.627 127.572 335 122.2 335 115.572C335 108.945 329.627 103.572 323 103.572C316.373 103.572 311 108.945 311 115.572C311 122.2 316.373 127.572 323 127.572Z" fill="#A0616A"/>
<path d="M337.9 119.163C336.748 121.414 335.202 123.442 333.335 125.15C332.799 125.758 332.115 126.219 331.349 126.487C330.964 126.613 330.547 126.599 330.171 126.449C329.795 126.299 329.483 126.022 329.291 125.667L329.065 125.358C329.719 125.158 330.336 124.854 330.891 124.456C331.167 124.255 331.392 123.992 331.545 123.688C331.699 123.383 331.778 123.047 331.775 122.706C331.755 122.365 331.604 122.046 331.353 121.814C331.102 121.582 330.771 121.457 330.429 121.464C329.667 121.555 328.986 122.444 328.303 122.101C327.751 121.821 327.83 121.019 327.989 120.413C328.838 117.253 328.482 112.354 327.26 112.183C326.045 111.936 324.887 111.462 323.847 110.788C322.806 110.112 321.643 109.645 320.423 109.412C320.335 109.401 320.246 109.394 320.151 109.387C320.116 108.735 320.002 108.09 319.812 107.466C319.68 108.125 319.477 108.768 319.208 109.385C318.152 109.529 317.085 109.583 316.019 109.546C314.883 109.414 311.618 112.058 311.594 111.694C311.559 111.042 311.445 110.397 311.255 109.773C311.122 110.432 310.92 111.076 310.651 111.692C310.639 111.717 310.633 111.739 310.621 111.764C310.274 110.919 310.174 109.973 310.183 110.679C309.454 106.188 310.9 103.484 314.59 100.821C315.327 100.234 316.202 99.8427 317.131 99.685C317.596 99.6109 318.071 99.6574 318.512 99.8202C318.953 99.9829 319.345 100.256 319.65 100.614C321.067 99.8655 322.658 99.509 324.26 99.5815C325.861 99.6539 327.414 100.153 328.757 101.026C331.412 102.803 333.506 103.984 333.153 107.16C335.669 107.402 337.794 109.421 338.589 111.813C339.377 114.209 338.968 116.882 337.9 119.163Z" fill="#2F2E41"/>
<path d="M353 182.809L344.263 181.572C341.308 186.455 340.258 199.452 340.258 199.452L331.707 219.536C331.141 219.916 330.686 220.437 330.388 221.046C330.09 221.655 329.96 222.331 330.011 223.005C330.061 223.68 330.291 224.33 330.676 224.889C331.061 225.448 331.589 225.897 332.205 226.191C332.822 226.484 333.506 226.612 334.189 226.561C334.871 226.511 335.529 226.283 336.094 225.902C336.659 225.52 337.113 224.998 337.409 224.389C337.706 223.779 337.834 223.103 337.782 222.428L351.821 199.051L353 182.809Z" fill="#A0616A"/>
<path d="M333 151.711L336.687 146.572L344.162 150.088L350.38 174.361C350.38 174.361 354.92 177.352 353.952 179.461C352.983 181.571 352.468 183.273 353.469 184.482C354.471 185.69 357.387 185.779 355.215 187.75C353.042 189.721 354.902 194.87 354.902 194.87L352.82 199.572L339.819 199.024L333 151.711Z" fill="#3F3D56"/>
<path d="M30.1758 226.724C30.9901 226.074 31.5229 225.127 31.6609 224.084C31.7989 223.04 31.5313 221.983 30.9149 221.138C30.7869 220.968 30.6453 220.809 30.4916 220.663L36 207.725L30.5292 202.572L24.8672 221.125C24.3209 221.821 24.0161 222.68 24.0006 223.57C23.9851 224.46 24.2596 225.33 24.7814 226.045C25.0822 226.448 25.4581 226.788 25.8879 227.044C26.3176 227.3 26.7926 227.467 27.2859 227.536C27.7792 227.605 28.281 227.575 28.7628 227.447C29.2445 227.319 29.6968 227.095 30.0936 226.789C30.1213 226.768 30.1487 226.746 30.1758 226.724Z" fill="#FFB6B6"/>
<path d="M63 142.883C63 142.883 58.8059 135.031 49.0765 143.511C39.3471 151.991 27.8499 194.437 28.0732 196.033C28.2964 197.628 30.6745 196.997 27.6666 199.295C24.6587 201.592 22.9956 199.528 24.6587 201.592C26.3218 203.656 30.0409 205.843 26.7479 206.15C23.4549 206.457 35.5268 211.572 35.5268 211.572C35.5268 211.572 37.4256 211.123 38.0081 206.809C38.3353 204.385 37.2266 203.009 39.1783 202.605C41.1301 202.201 39.3006 197.819 39.5816 197.129C39.8625 196.439 55.4466 166.321 55.4466 166.321L63 142.883Z" fill="#6C63FF"/>
<path d="M82.0016 335.572L88.7764 335.572L92 308.572L82 308.573L82.0016 335.572Z" fill="#FFB6B6"/>
<path d="M82.0004 342.572L103 342.571V342.291C103 339.999 102.139 337.801 100.606 336.18C99.073 334.56 96.9941 333.649 94.8264 333.649H94.8259L90.99 330.572L83.8331 333.65L82 333.65L82.0004 342.572Z" fill="#2F2E41"/>
<path d="M33 322.564L38.7304 326.572L57 306.489L48.5413 300.572L33 322.564Z" fill="#FFB6B6"/>
<path d="M29 328.482L46.3441 340.572L46.4984 340.355C47.7571 338.58 48.2532 336.382 47.8774 334.244C47.5016 332.107 46.2848 330.205 44.4945 328.957L43.0161 324.365L35.4149 322.628L33.9009 321.572L29 328.482Z" fill="#2F2E41"/>
<path d="M54.136 202.452L53.5532 203.682C49.7219 211.773 48.7423 220.818 50.2312 229.629C50.3419 229.973 50.3208 230.345 50.1718 230.674C49.2484 231.745 50.6971 236.396 51.5275 238.993L52.2759 243.586C52.2759 243.586 51.0349 247.851 52.92 247.538C54.8051 247.224 51.998 251.774 53.7961 252.914L58.4606 281.536L39 313.241L46.2076 323.572L75.0381 286.88L75.3985 253.75L79.7231 280.468L80.0835 322.504L93.1959 321.126L98 280.371L93.4175 224.01L86.2099 199.572L54.136 202.452Z" fill="#2F2E41"/>
<path d="M63.4029 128.572L73.9352 129.072L78.9718 137.746C81.2052 138.414 83.2596 139.574 84.9834 141.139C86.7072 142.705 88.0564 144.636 88.9312 146.791L92.2108 154.869L88.4799 201.572C88.4799 201.572 87.7321 204.397 89.1091 203.985C90.4861 203.572 89.9249 207.112 89.9249 207.112L95 226.572L48.8582 222.572L51.4203 201.955C51.4203 201.955 47.8581 202.069 50.3628 199.572C52.8675 197.075 54.0855 197.871 51.6795 194.919C49.2734 191.967 48.9156 189.826 48.9156 189.826L47.8421 175.201L46.0725 154.619C45.7917 151.353 46.3296 148.068 47.6378 145.061C48.946 142.053 50.9835 139.417 53.5671 137.39L63.4029 128.572Z" fill="#6C63FF"/>
<path d="M68.5 125.572C75.9558 125.572 82 119.752 82 112.572C82 105.393 75.9558 99.5723 68.5 99.5723C61.0442 99.5723 55 105.393 55 112.572C55 119.752 61.0442 125.572 68.5 125.572Z" fill="#FFB6B6"/>
<path d="M62.9255 124.572C66.7937 124.446 67.1451 123.434 71.0132 123.308C72.2449 123.268 73.6984 123.101 74.2938 122.032C74.4671 121.631 74.5443 121.196 74.5193 120.761C74.4942 120.326 74.3677 119.902 74.1495 119.524C73.7081 118.773 73.3103 117.997 72.9579 117.201C72.7456 116.577 72.6899 115.91 72.7956 115.26C72.9014 114.61 73.1653 113.994 73.5648 113.468C73.9642 112.941 74.487 112.519 75.0881 112.237C75.6891 111.956 76.3503 111.823 77.0145 111.852C78.1917 111.902 79.2972 112.451 80.4711 112.551C82.081 112.689 85.641 107.421 84.8998 105.998C84.1783 104.613 82.7263 103.568 82.498 102.026C82.3488 101.017 82.7689 100.015 82.8264 98.9968C82.9115 97.4875 79.0509 100.891 79.7579 99.5512C81.4923 96.2654 65.1486 92.192 62.4579 96.3077C61.4523 97.8459 59.6601 97.741 58.0627 98.6648C57.0157 99.2702 54.3721 101.359 53.7711 102.661C53.2188 103.989 52.9579 105.419 53.0055 106.855C52.9813 113.533 54.0081 119.676 59.4439 123.624" fill="#2F2E41"/>
<path d="M101.102 226.58C100.261 225.885 99.7438 224.912 99.6606 223.868C99.5775 222.823 99.935 221.79 100.657 220.987C100.806 220.826 100.97 220.677 101.146 220.541L96 207.359L102.258 202.572L107.213 221.34C107.761 222.064 108.036 222.936 107.996 223.821C107.956 224.705 107.603 225.553 106.992 226.231C106.641 226.614 106.211 226.928 105.729 227.156C105.247 227.385 104.722 227.522 104.183 227.561C103.644 227.6 103.102 227.539 102.588 227.383C102.074 227.227 101.598 226.977 101.187 226.65C101.158 226.627 101.13 226.604 101.102 226.58Z" fill="#FFB6B6"/>
<path d="M74 140.59C74 140.59 78.6061 132.911 87.6928 142.051C96.7795 151.191 105.576 194.729 105.26 196.326C104.944 197.924 102.637 197.146 105.465 199.644C108.294 202.142 110.058 200.157 108.294 202.142C106.53 204.128 102.732 206.114 105.961 206.62C109.19 207.126 96.9791 211.572 96.9791 211.572C96.9791 211.572 95.1335 211.006 94.8174 206.615C94.6399 204.149 95.8156 202.826 93.9151 202.302C92.0146 201.778 94.0811 197.462 93.8454 196.749C93.6096 196.036 80.0452 164.702 80.0452 164.702L74 140.59Z" fill="#6C63FF"/>
<path d="M206 68.5695C206.001 70.7451 205.385 72.872 204.232 74.6813C203.079 76.4905 201.439 77.9008 199.521 78.7339C197.602 79.567 195.491 79.7853 193.454 79.3614C191.417 78.9375 189.546 77.8904 188.077 76.3524C186.608 74.8144 185.608 72.8546 185.202 70.721C184.797 68.5873 185.004 66.3755 185.798 64.3653C186.593 62.3551 187.938 60.6368 189.664 59.4276C191.391 58.2185 193.421 57.5728 195.497 57.5723C196.877 57.5703 198.243 57.8534 199.518 58.4053C200.792 58.9573 201.951 59.7672 202.926 60.7887C203.902 61.8102 204.675 63.0232 205.203 64.3584C205.73 65.6935 206.001 67.1245 206 68.5695Z" fill="#6C63FF"/>
<path d="M196 69.5723C198.209 69.5723 200 68.0053 200 66.0723C200 64.1393 198.209 62.5723 196 62.5723C193.791 62.5723 192 64.1393 192 66.0723C192 68.0053 193.791 69.5723 196 69.5723Z" fill="white"/>
<path d="M200.091 71.5723H191.909C191.403 71.5728 190.918 71.7749 190.56 72.1342C190.202 72.4935 190.001 72.9806 190 73.4888C190.117 75.1302 190.372 76.7587 190.764 78.3566C192.404 79.2055 194.233 79.6221 196.078 79.5675C197.923 79.5129 199.725 78.9889 201.313 78.0445C201.663 76.5469 201.893 75.0234 202 73.4888C201.999 72.9806 201.798 72.4935 201.44 72.1342C201.082 71.7749 200.597 71.5728 200.091 71.5723Z" fill="white"/>
<path d="M2.8769e-06 343.072C-0.000251696 343.138 0.0163912 343.203 0.0489683 343.264C0.0815453 343.325 0.12941 343.38 0.189822 343.426C0.250233 343.473 0.321998 343.51 0.400977 343.535C0.479957 343.56 0.564597 343.572 0.65003 343.572H391.35C391.522 343.572 391.688 343.52 391.81 343.426C391.932 343.332 392 343.205 392 343.072C392 342.94 391.932 342.812 391.81 342.719C391.688 342.625 391.522 342.572 391.35 342.572H0.65003C0.564598 342.572 0.479955 342.585 0.400977 342.61C0.321999 342.635 0.250241 342.672 0.18983 342.718C0.129419 342.765 0.0815463 342.82 0.0489683 342.881C0.0163902 342.941 -0.000248796 343.007 2.8769e-06 343.072Z" fill="#CCCCCC"/>
</svg>
