<svg width="40" height="41" viewBox="0 0 40 41" fill="none" xmlns="http://www.w3.org/2000/svg">
<path d="M17.9929 1.25414C19.2341 0.534128 20.7659 0.534129 22.0071 1.25414L28.65 5.1076L35.3087 8.93379C36.5528 9.6487 37.3187 10.9753 37.3158 12.4102L37.3 20.0898L37.3158 27.7695C37.3187 29.2044 36.5528 30.531 35.3087 31.2459L28.65 35.0721L22.0071 38.9255C20.7659 39.6456 19.2341 39.6456 17.9929 38.9255L11.35 35.0721L4.69135 31.2459C3.4472 30.531 2.68131 29.2044 2.68425 27.7695L2.7 20.0898L2.68425 12.4102C2.68131 10.9753 3.4472 9.6487 4.69135 8.93379L11.35 5.1076L17.9929 1.25414Z" fill="#E1E1E2"/>
<g clip-path="url(#clip0_4069_13298)">
<path d="M20 15.0898L23.3333 20.0898L27.5 16.7565L25.8333 25.0898H14.1667L12.5 16.7565L16.6667 20.0898L20 15.0898Z" fill="white" stroke="white" stroke-width="1.5" stroke-linecap="round" stroke-linejoin="round"/>
</g>
<defs>
<clipPath id="clip0_4069_13298">
<rect width="20" height="20" fill="white" transform="translate(10 10.0898)"/>
</clipPath>
</defs>
</svg>
